<?xml version="1.0" encoding="utf-8"?>
<!-- Generator: Adobe Illustrator 25.2.3, SVG Export Plug-In . SVG Version: 6.00 Build 0)  -->
<svg version="1.1" id="Layer_1" xmlns="http://www.w3.org/2000/svg" xmlns:xlink="http://www.w3.org/1999/xlink" x="0px" y="0px"
	 viewBox="0 0 36 36" style="enable-background:new 0 0 36 36;" xml:space="preserve">
<style type="text/css">
	.st0{fill-rule:evenodd;clip-rule:evenodd;fill:url(#SVGID_1_);}
	.st1{fill:#FFFFFF;}
</style>
<linearGradient id="SVGID_1_" gradientUnits="userSpaceOnUse" x1="4.8561" y1="7.6366" x2="28.8561" y2="26.5597">
	<stop  offset="0" style="stop-color:#F9B352"/>
	<stop  offset="1" style="stop-color:#EC678F"/>
</linearGradient>
<path class="st0" d="M18,36C8.1,36,0.001,27.9,0.001,17.91c0.09-9.9,8.1-17.999,18.09-17.91C27.991,0.09,36,8.1,36,18.18
	C35.91,27.99,27.9,36,18,36z"/>
<path class="st1" d="M25.991,19.697c-0.819-1.08-1.923-1.729-3.294-1.991c0.065-0.038,0.096-0.06,0.13-0.076
	c0.433-0.196,0.876-0.372,1.296-0.592c0.631-0.331,1.168-0.784,1.603-1.353c0.397-0.519,0.644-1.114,0.757-1.745
	c0.085-0.475,0.065-0.971,0.062-1.458c-0.002-0.524-0.139-1.027-0.342-1.506c-0.292-0.691-0.716-1.29-1.285-1.792
	c-0.6-0.53-1.266-0.946-2.013-1.219c-0.393-0.144-0.807-0.243-1.22-0.315c-0.602-0.104-1.21-0.222-1.817-0.232
	c-1.827-0.03-3.655-0.012-5.483-0.008c-0.133,0-0.265,0.038-0.403,0.058c0,1.286,0,2.539,0,3.828c-0.932,0-1.837-0.018-2.74,0.007
	c-0.477,0.013-0.925,0.159-1.315,0.469c-0.638,0.508-0.929,1.143-0.888,1.967c0.034,0.681,0.307,1.214,0.822,1.63
	c0.421,0.34,0.9,0.53,1.459,0.518c0.797-0.017,1.595-0.004,2.393-0.004c0.087,0,0.174,0,0.259,0c0,1.281,0,2.524,0,3.789
	c-0.094,0-0.175,0-0.256,0c-0.789,0-1.578-0.003-2.368,0.002c-0.162,0.001-0.328,0.018-0.487,0.052
	c-0.822,0.174-1.396,0.66-1.706,1.434c-0.182,0.455-0.188,0.935-0.112,1.423c0.122,0.777,0.563,1.309,1.229,1.673
	c0.388,0.212,0.816,0.258,1.254,0.254c0.731-0.008,1.462,0.005,2.193-0.006c0.21-0.003,0.27,0.064,0.268,0.27
	c-0.009,1.113-0.004,2.226-0.004,3.34c0,0.088,0,0.177,0,0.283c0.178,0,0.326,0.003,0.474,0c2.328-0.055,4.659,0.128,6.983-0.107
	c0.578-0.059,1.161-0.163,1.718-0.328c1.143-0.339,2.122-0.951,2.866-1.906c0.478-0.613,0.807-1.296,0.914-2.063
	c0.065-0.463,0.046-0.938,0.057-1.408C27.023,21.499,26.633,20.544,25.991,19.697z M14.099,11.397c0.101,0,0.19,0,0.279,0
	c1.662,0,3.324-0.007,4.985,0.003c0.756,0.005,1.595,0.625,1.819,1.327c0.188,0.587,0.21,1.168-0.012,1.751
	c-0.208,0.545-0.586,0.899-1.126,1.125c-0.36,0.151-0.721,0.182-1.098,0.182c-1.52-0.003-3.041-0.001-4.561-0.001
	c-0.09,0-0.18,0-0.287,0C14.099,14.306,14.099,12.864,14.099,11.397z M20.281,24.305c-0.263,0.094-0.555,0.146-0.834,0.148
	c-1.744,0.013-3.488,0.006-5.231,0.006c-0.032,0-0.064-0.006-0.119-0.011c0-1.564,0-3.105,0-4.675c0.098,0,0.187,0,0.275,0
	c1.777,0,3.554-0.004,5.331,0.002c0.669,0.002,1.186,0.331,1.603,0.824c0.363,0.429,0.502,0.962,0.497,1.498
	C21.793,23.089,21.452,23.887,20.281,24.305z"/>
</svg>
