<?xml version="1.0" encoding="utf-8"?>
<!-- Generator: Adobe Illustrator 25.2.3, SVG Export Plug-In . SVG Version: 6.00 Build 0)  -->
<svg version="1.1" id="Layer_1" xmlns="http://www.w3.org/2000/svg" xmlns:xlink="http://www.w3.org/1999/xlink" x="0px" y="0px"
	 viewBox="0 0 36 36" style="enable-background:new 0 0 36 36;" xml:space="preserve">
<style type="text/css">
	.st0{fill:#FFFFFF;}
</style>
<g>
	<ellipse class="st0" cx="18.023" cy="18.023" rx="16.725" ry="16.725"/>
	<path d="M35.635,14.376c-0.237-1.157-0.59-2.296-1.05-3.384c-0.451-1.067-1.01-2.097-1.66-3.059
		c-0.643-0.953-1.382-1.848-2.196-2.661c-0.814-0.814-1.709-1.553-2.661-2.196c-0.963-0.65-1.992-1.209-3.059-1.661
		c-1.088-0.46-2.227-0.814-3.384-1.05C20.438,0.123,19.218,0,18,0c-1.219,0-2.438,0.123-3.624,0.365
		c-1.157,0.237-2.296,0.59-3.384,1.05c-1.067,0.451-2.097,1.01-3.059,1.661C6.981,3.719,6.085,4.458,5.272,5.272
		C4.458,6.086,3.719,6.982,3.076,7.933c-0.65,0.963-1.209,1.992-1.66,3.059c-0.46,1.088-0.814,2.227-1.05,3.384
		C0.123,15.562,0,16.782,0,18c0,1.219,0.123,2.438,0.366,3.624c0.237,1.157,0.59,2.296,1.05,3.384
		c0.451,1.067,1.01,2.097,1.66,3.059c0.643,0.953,1.382,1.848,2.196,2.661c0.814,0.814,1.709,1.553,2.661,2.196
		c0.963,0.65,1.992,1.209,3.059,1.661c1.088,0.46,2.227,0.814,3.384,1.05C15.562,35.877,16.782,36,18,36
		c1.219,0,2.438-0.123,3.624-0.365c1.157-0.237,2.296-0.59,3.384-1.05c1.067-0.451,2.097-1.01,3.059-1.661
		c0.953-0.643,1.848-1.382,2.661-2.196c0.814-0.814,1.553-1.709,2.196-2.661c0.65-0.963,1.209-1.992,1.66-3.059
		c0.46-1.088,0.814-2.227,1.05-3.384C35.877,20.438,36,19.218,36,18S35.877,15.563,35.635,14.376z M18,33.751
		c-8.699,0-15.75-7.051-15.75-15.75c0-8.699,7.051-15.75,15.75-15.75c8.699,0,15.75,7.051,15.75,15.75
		C33.75,26.7,26.699,33.751,18,33.751z"/>
	<path d="M18.28,32.398c0.051-0.001,0.101-0.002,0.152-0.004c0.024-0.001,0.048-0.001,0.072-0.002
		c0.052-0.002,0.104-0.004,0.157-0.006c0.019-0.001,0.039-0.002,0.058-0.003c0.072-0.004,0.143-0.007,0.215-0.012
		c0.004,0,0.009-0.001,0.013-0.001c0.067-0.004,0.133-0.009,0.2-0.014c0.019-0.002,0.039-0.003,0.058-0.005
		c0.053-0.004,0.106-0.009,0.16-0.014c0.02-0.002,0.04-0.004,0.059-0.006c0.059-0.006,0.118-0.012,0.177-0.018
		c0.011-0.001,0.023-0.002,0.034-0.004c0.073-0.008,0.146-0.017,0.219-0.026c0.002,0,0.004-0.001,0.006-0.001
		c0.069-0.009,0.137-0.018,0.205-0.028c0.014-0.002,0.029-0.004,0.043-0.006c0.058-0.009,0.116-0.017,0.175-0.027
		c0.014-0.002,0.028-0.004,0.041-0.007c0.069-0.011,0.138-0.023,0.207-0.035c0,0,0,0,0.001,0c0.145-0.026,0.289-0.054,0.431-0.084
		c0.01-0.002,0.021-0.004,0.031-0.007c0.062-0.013,0.125-0.027,0.187-0.041c0.009-0.002,0.017-0.004,0.026-0.006
		c0.144-0.033,0.287-0.067,0.428-0.104c-1.769,0.058-3.21-0.19-4.125-0.385c-2.036-0.435-3.979-1.232-5.619-2.608
		c-2.735-2.296-4.136-5.581-4.101-8.845c0.026-2.443,0.857-4.876,2.533-6.873c2.1-2.501,5.1-3.813,8.169-3.874
		c0.142-0.003,0.283-0.003,0.424,0V6.905c-0.158-0.002-0.316-0.002-0.473,0.001c-0.934,0.019-1.867,0.133-2.774,0.34
		c-0.916,0.21-1.81,0.515-2.657,0.909c-0.865,0.401-1.686,0.898-2.442,1.473c-0.777,0.591-1.491,1.273-2.122,2.026
		c-0.589,0.702-1.106,1.466-1.537,2.269c-0.419,0.784-0.761,1.614-1.014,2.466c-0.249,0.837-0.416,1.703-0.497,2.577
		c-0.025,0.272-0.042,0.544-0.051,0.818c-0.003,0.105-0.005,0.21-0.006,0.314c0,0.053,0.001,0.106,0.002,0.159
		c0.019,0.934,0.133,1.867,0.34,2.774c0.21,0.916,0.517,1.809,0.909,2.657c0.467,1.01,1.303,2.506,2.529,3.648
		c0.001,0.001,0.002,0.002,0.003,0.003c2.446,1.918,5.529,3.061,8.878,3.061c0.072,0,0.143-0.001,0.215-0.002
		C18.237,32.399,18.258,32.398,18.28,32.398z"/>
	<path d="M22.306,30.02c-0.858-0.015-1.894-0.145-2.718-0.295c-3.806-0.692-7.077-3.007-8.282-6.522
		c-1.466-4.277,0.785-8.887,5.026-10.297c0.829-0.276,1.672-0.408,2.504-0.412c1.097-0.005,2.175,0.216,3.17,0.631l1.031-2.196
		c-0.308-0.131-0.623-0.248-0.944-0.35c-1.061-0.338-2.162-0.507-3.269-0.502c-1.114,0.005-2.217,0.187-3.278,0.539
		c-1.357,0.451-2.581,1.157-3.641,2.098c-0.507,0.451-0.974,0.956-1.384,1.499c-0.405,0.536-0.761,1.115-1.056,1.72
		c-0.295,0.604-0.532,1.239-0.706,1.889c-0.176,0.655-0.288,1.33-0.333,2.007c-0.095,1.405,0.091,2.801,0.553,4.148
		c0.461,1.346,1.205,2.582,2.212,3.672c0.905,0.981,1.96,1.724,3.243,2.398c1.335,0.701,2.974,1.078,4.686,1.315
		c1.104,0.153,2.579,0.185,3.455,0.181c0.759-0.281,1.078-0.399,1.487-0.574c0.357-0.164,0.706-0.341,1.046-0.533
		c0.35-0.208,0.411-0.24,0.996-0.622c0.052-0.037,0.104-0.075,0.155-0.112C24.27,30.059,23.747,30.045,22.306,30.02z"/>
	<path d="M26.856,27.27c-0.57,0.039-1.379,0.085-2.306,0.085c-1.641,0-3.654-0.143-5.379-0.718
		c-2.652-0.884-5.175-3.166-5.175-5.963c0-2.797,2.267-5.062,5.062-5.062c1.9,0,3.555,1.046,4.421,2.595l2.198-1.084
		c-0.346-0.645-0.784-1.235-1.308-1.758c-0.689-0.689-1.492-1.23-2.386-1.609c-0.928-0.392-1.911-0.591-2.925-0.591
		c-1.012,0-1.997,0.199-2.925,0.591c-0.895,0.378-1.697,0.92-2.386,1.609c-0.689,0.689-1.23,1.492-1.609,2.386
		c-0.392,0.928-0.591,1.911-0.591,2.925c0,1.019,0.219,2.025,0.649,2.986c0.379,0.849,0.919,1.65,1.603,2.381
		c1.209,1.295,2.842,2.332,4.597,2.917c1.68,0.56,4.167,0.753,6.564,0.587c0.667-0.046,1.172-0.118,2.021-0.29
		c0.818-0.653,1.563-1.394,2.221-2.208C28.64,27.109,27.581,27.22,26.856,27.27z"/>
</g>
</svg>
