<?xml version="1.0" encoding="utf-8"?>
<!-- Generator: Adobe Illustrator 25.2.1, SVG Export Plug-In . SVG Version: 6.00 Build 0)  -->
<svg version="1.1" id="Layer_1" xmlns="http://www.w3.org/2000/svg" xmlns:xlink="http://www.w3.org/1999/xlink" x="0px" y="0px"
	 viewBox="0 0 36 36" style="enable-background:new 0 0 36 36;" xml:space="preserve">
<style type="text/css">
	.st0{fill:#30B6C6;}
	.st1{fill:#FFFFFF;}
</style>
<path class="st0" d="M18,36c9.941,0,18-8.059,18-18S27.941,0,18,0C8.059,0,0,8.059,0,18S8.059,36,18,36z"/>
<g>
	<path class="st1" d="M22.787,24.069c-0.881-0.023-1.682-0.124-2.429,0.425c-0.605,0.444-1.304,0.756-1.948,1.149
		c-0.267,0.163-0.472,0.201-0.762,0.017c-0.668-0.425-1.373-0.79-2.047-1.207c-0.149-0.092-0.317-0.293-0.326-0.452
		c-0.036-0.676-0.015-1.354-0.015-2.129c0.844,0.484,1.611,0.949,2.406,1.362c0.186,0.097,0.539,0.117,0.687,0.004
		c1.412-1.073,2.994-1.405,4.728-1.215c0.447,0.049,0.905,0.023,1.357,0.002c0.333-0.015,0.474,0.084,0.466,0.444
		c-0.021,0.887-0.011,1.775-0.004,2.662c0.002,0.293-0.214,0.555,0.032,0.899c0.166,0.231,0.017,0.57-0.346,0.76
		c-2.14,1.125-4.159,2.461-6.281,3.616c-0.154,0.084-0.439,0.079-0.592-0.008c-2.15-1.217-4.291-2.453-6.424-3.7
		c-0.125-0.073-0.242-0.281-0.243-0.427c-0.016-2.02-0.011-4.04-0.011-6.061c0-0.305,0.023-0.612-0.005-0.915
		c-0.032-0.342,0.062-0.562,0.395-0.707c0.302-0.131,0.574-0.33,0.91-0.529c-0.141-0.093-0.209-0.163-0.29-0.189
		c-0.87-0.28-1.084-0.865-1.033-1.756c0.087-1.524,0.018-3.057,0.032-4.586c0.002-0.195,0.122-0.386,0.17-0.583
		c0.014-0.055-0.021-0.133-0.055-0.187c-0.315-0.503-0.145-1.201,0.363-1.494c2.04-1.174,4.079-2.35,6.076-3.5
		c0.237,0.091,0.44,0.169,0.644,0.248c0.025-0.047,0.05-0.093,0.076-0.14c-0.135-0.075-0.27-0.151-0.429-0.24
		c0.055-0.043,0.115-0.108,0.129-0.099c0.567,0.35,1.126,0.713,1.696,1.058c0.245,0.149,0.529,0.237,0.764,0.399
		c0.263,0.182,0.491,0.417,0.734,0.629c-0.022,0.056-0.043,0.112-0.065,0.168c0.07-0.064,0.139-0.128,0.225-0.208
		c0.037,0.101,0.071,0.194,0.123,0.337c0.084-0.101,0.144-0.174,0.247-0.298c0.032,0.208,0.055,0.359,0.063,0.412
		c0.304,0.046,0.585,0.04,0.821,0.14c0.214,0.09,0.381,0.295,0.574,0.455c0.28,0.126,0.598,0.296,0.934,0.413
		c0.727,0.253,0.95,0.759,0.819,1.481c-0.026,0.145-0.003,0.299,0.002,0.448c0.023,0.628-0.235,0.888-0.86,0.878
		c-0.427-0.007-0.854-0.001-1.278-0.001c-0.009-1.498-0.245-1.939-0.899-1.712c0.056-0.143,0.107-0.273,0.211-0.538
		c-0.761,0.532-1.114,0.116-1.491-0.356c-0.1-0.126-0.405-0.065-0.578-0.16c-0.71-0.39-1.406-0.806-2.042-1.175
		c-0.974,0.563-1.927,1.111-2.877,1.665c-0.618,0.36-1.464,0.593-1.782,1.133c-0.316,0.537-0.108,1.388-0.115,2.102
		c-0.009,0.963,0.048,1.929-0.022,2.887c-0.038,0.518,0.31,0.756,0.585,0.921c1.152,0.686,2.373,1.257,3.527,1.942
		c0.501,0.297,0.908,0.388,1.354-0.003c0.349-0.305,0.656-0.222,1.007,0.014c0.445,0.3,0.923,0.551,1.524,0.903
		c-0.489,0.288-0.849,0.506-1.215,0.714c-0.655,0.372-1.313,1.025-1.971,1.026c-0.656,0.001-1.315-0.65-1.971-1.019
		c-0.296-0.166-0.615-0.307-0.875-0.519c-0.511-0.418-0.965-0.4-1.497-0.015c-0.304,0.22-0.466,0.403-0.458,0.801
		c0.027,1.491,0.022,2.983,0.003,4.474c-0.005,0.361,0.107,0.553,0.413,0.77c0.629,0.445,1.349,0.708,1.994,1.117
		c0.7,0.445,1.425,0.852,2.158,1.24c0.138,0.073,0.396,0.04,0.542-0.043c1.279-0.727,2.532-1.501,3.822-2.208
		c0.475-0.26,0.726-0.547,0.63-1.098C22.76,24.527,22.787,24.334,22.787,24.069z"/>
	<path class="st1" d="M14.789,16.639c1.056-0.605,2.031-1.175,3.021-1.715c0.123-0.067,0.36-0.029,0.496,0.047
		c0.939,0.521,1.865,1.066,2.796,1.602c0.723,0.417,1.675-0.113,1.682-0.938c0.006-0.66-0.007-1.32,0.009-1.979
		c0.007-0.28,0.065-0.559,0.097-0.823c0.307-0.022,0.653-0.057,1-0.07c0.334-0.013,0.669-0.003,1.068-0.003
		c0,1.094-0.054,2.128,0.015,3.154c0.068,0.996-0.177,1.737-1.35,2.094c0.439,0.261,0.773,0.432,1.073,0.65
		c0.126,0.091,0.223,0.273,0.255,0.43c0.043,0.213,0.012,0.441,0.012,0.663c0,0.438,0,0.876,0,1.406
		c-0.379-0.065-0.682-0.117-0.923-0.158c-0.404,0.054-0.781,0.104-1.122,0.149c-0.069-0.102-0.113-0.138-0.108-0.163
		c0.171-0.882-0.3-1.343-1.044-1.655c-0.157-0.066-0.316-0.224-0.387-0.379c-0.166-0.363-0.312-0.658-0.783-0.366
		c-0.066,0.041-0.239-0.06-0.347-0.121c-0.607-0.343-1.225-0.67-1.807-1.051c-0.318-0.208-0.573-0.229-0.856,0.01
		c-0.482,0.408-0.941,0.399-1.452,0.008C15.747,17.136,15.294,16.931,14.789,16.639z"/>
</g>
</svg>
