<?xml version="1.0" encoding="utf-8"?>
<!-- Generator: Adobe Illustrator 25.2.1, SVG Export Plug-In . SVG Version: 6.00 Build 0)  -->
<svg version="1.1" id="Layer_1" xmlns="http://www.w3.org/2000/svg" xmlns:xlink="http://www.w3.org/1999/xlink" x="0px" y="0px"
	 viewBox="0 0 36 36" style="enable-background:new 0 0 36 36;" xml:space="preserve">
<style type="text/css">
	.st0{fill:#F4B731;}
	.st1{fill-rule:evenodd;clip-rule:evenodd;fill:#FFFDFA;}
</style>
<g>
	<circle class="st0" cx="18" cy="18" r="18"/>
	<path class="st1" d="M10.856,8.625h7.5c4.562,0,8.021,2.479,9.307,6.087H30v2.181h-1.844c0.036,0.345,0.055,0.696,0.055,1.052
		v0.054c0,0.395-0.023,0.79-0.069,1.183H30v2.181h-2.381c-1.32,3.557-4.752,6.013-9.262,6.013h-7.5v-6.014H8.25v-2.181h2.606v-2.289
		H8.25v-2.181h2.606L10.856,8.625L10.856,8.625z M12.953,21.362v4.057h5.404c3.334,0,5.812-1.625,6.965-4.057H12.953z
		 M25.964,19.181H12.953v-2.289h13.015c0.048,0.36,0.073,0.73,0.073,1.106v0.053C26.041,18.429,26.015,18.807,25.964,19.181
		L25.964,19.181z M18.357,10.578c3.35,0,5.834,1.668,6.981,4.134H12.953v-4.134C12.953,10.578,18.357,10.578,18.357,10.578z"/>
</g>
</svg>
