<?xml version="1.0" encoding="utf-8"?>
<!-- Generator: Adobe Illustrator 25.2.1, SVG Export Plug-In . SVG Version: 6.00 Build 0)  -->
<svg version="1.1" id="Layer_1" xmlns="http://www.w3.org/2000/svg" xmlns:xlink="http://www.w3.org/1999/xlink" x="0px" y="0px"
	 viewBox="0 0 36 36" style="enable-background:new 0 0 36 36;" xml:space="preserve">
<style type="text/css">
	.st0{clip-path:url(#SVGID_2_);}
	.st1{fill:#FFE804;}
	.st2{fill-rule:evenodd;clip-rule:evenodd;}
</style>
<g>
	<g>
		<defs>
			<rect id="SVGID_1_" width="36" height="36"/>
		</defs>
		<clipPath id="SVGID_2_">
			<use xlink:href="#SVGID_1_"  style="overflow:visible;"/>
		</clipPath>
		<g class="st0">
			<path class="st1" d="M18,36c9.941,0,18-8.059,18-18S27.941,0,18,0C8.059,0,0,8.059,0,18S8.059,36,18,36z"/>
			<path class="st2" d="M18.288,5.76c0.792,0,1.512,1.224,1.512,2.664c0,0.072,0,0.072,0,0.072c0.432-0.504,0.936-0.792,1.368-0.648
				c0.432,0.144,0.576,0.72,0.504,1.44c0,0.36-0.072,0.72-0.216,1.08c-0.072,0.216-0.216,0.432-0.288,0.576
				c5.76,1.44,9.864,6.408,9.792,14.976h-3.528c0.072-7.272-4.032-10.872-9.36-10.944C12.24,14.832,9,18.864,8.64,25.92h-3.6
				c0.432-8.64,4.032-13.824,10.368-14.904c-0.072-0.144-0.288-0.432-0.36-0.648c-0.504-1.08-0.432-2.16,0.144-2.448
				c0.432-0.216,1.152,0.144,1.584,0.792c0-0.072,0-0.216,0-0.288C16.848,6.984,17.496,5.76,18.288,5.76z M15.048,19.152
				c0.432,0,0.792,0.432,0.792,0.864v2.16c0,0.504-0.36,0.864-0.792,0.864c-0.432,0-0.792-0.432-0.792-0.864v-2.16
				C14.328,19.512,14.616,19.152,15.048,19.152z M21.24,19.152c0.432,0,0.792,0.432,0.792,0.864v2.16
				c0,0.504-0.36,0.864-0.792,0.864c-0.432,0-0.792-0.432-0.792-0.864v-2.16C20.52,19.512,20.808,19.152,21.24,19.152z"/>
		</g>
	</g>
</g>
</svg>
