<?xml version="1.0" encoding="utf-8"?>
<!-- Generator: Adobe Illustrator 25.2.1, SVG Export Plug-In . SVG Version: 6.00 Build 0)  -->
<svg version="1.1" id="Layer_1" xmlns="http://www.w3.org/2000/svg" xmlns:xlink="http://www.w3.org/1999/xlink" x="0px" y="0px"
	 viewBox="0 0 36 36" style="enable-background:new 0 0 36 36;" xml:space="preserve">
<style type="text/css">
	.st0{fill:#FFFFFF;}
	.st1{fill:#C2A633;}
</style>
<g>
	<g id="XMLID_1_">
		<g>
			<path class="st0" d="M15.86,16.93h4.05v2.13h-4.05v5.07h2.7c0.69,0,5.69,0.07,5.68-5.9c-0.01-5.98-4.85-6.37-5.81-6.37h-2.57
				V16.93z M27.87,18.16c0,10.33-9.16,9.56-9.16,9.56h-6.52v-8.66h-2.3v-2.13h2.3V8.27h5.59C19.11,8.27,27.87,7.99,27.87,18.16z"/>
			<path class="st1" d="M18,0c9.94,0,18,8.06,18,18s-8.06,18-18,18S0,27.94,0,18S8.06,0,18,0z M18.71,27.72c0,0,9.16,0.77,9.16-9.56
				c0-10.17-8.76-9.89-10.09-9.89h-5.59v8.66h-2.3v2.13h2.3v8.66H18.71z"/>
			<path class="st1" d="M24.24,18.23c0.01,5.97-4.99,5.9-5.68,5.9h-2.7v-5.07h4.05v-2.13h-4.05v-5.07h2.57
				C19.39,11.86,24.23,12.25,24.24,18.23z"/>
		</g>
	</g>
</g>
</svg>
