<?xml version="1.0" encoding="utf-8"?>
<!-- Generator: Adobe Illustrator 25.2.1, SVG Export Plug-In . SVG Version: 6.00 Build 0)  -->
<svg version="1.1" id="Layer_1" xmlns="http://www.w3.org/2000/svg" xmlns:xlink="http://www.w3.org/1999/xlink" x="0px" y="0px"
	 viewBox="0 0 36 36" style="enable-background:new 0 0 36 36;" xml:space="preserve">
<style type="text/css">
	.st0{fill:#FFFFFF;}
	.st1{fill:#191326;}
	.st2{fill:#E6007A;}
</style>
<g>
	<g>
		<circle class="st0" cx="18" cy="18" r="18"/>
	</g>
</g>
<g>
	<path class="st1" d="M18,6c-5.015,0-9.114,4.075-9.114,9.114c0,1.012,0.169,2.001,0.482,2.966c0.217,0.651,0.94,1.012,1.616,0.796
		c0.651-0.217,1.012-0.94,0.795-1.616c-0.264-0.751-0.387-1.544-0.361-2.339c0.097-3.4,2.845-6.197,6.245-6.366
		c3.785-0.193,6.92,2.821,6.92,6.558c0,3.496-2.749,6.366-6.197,6.558c0,0-1.278,0.073-1.905,0.169l-0.723,0.121
		c-0.073,0.024-0.145-0.048-0.121-0.121l0.217-1.061l1.182-5.449c0.145-0.675-0.289-1.35-0.964-1.495
		c-0.675-0.145-1.35,0.289-1.495,0.964l-2.869,13.406c-0.145,0.675,0.289,1.35,0.964,1.495c0.675,0.145,1.35-0.289,1.495-0.964
		c0.024-0.145,0.41-1.905,0.41-1.905c0.289-1.35,1.398-2.339,2.701-2.507c0.289-0.048,1.422-0.121,1.422-0.121
		c4.702-0.362,8.415-4.292,8.415-9.09C27.114,10.075,23.015,6,18,6L18,6z"/>
	<path class="st2" d="M18.651,26.978c-0.82-0.169-1.64,0.338-1.809,1.182c-0.169,0.82,0.338,1.64,1.182,1.808
		c0.82,0.169,1.64-0.337,1.808-1.182C20.001,27.942,19.495,27.146,18.651,26.978z"/>
</g>
</svg>
