<?xml version="1.0" encoding="utf-8"?>
<!-- Generator: Adobe Illustrator 25.2.1, SVG Export Plug-In . SVG Version: 6.00 Build 0)  -->
<svg version="1.1" id="Layer_1" xmlns="http://www.w3.org/2000/svg" xmlns:xlink="http://www.w3.org/1999/xlink" x="0px" y="0px"
	 viewBox="0 0 36 36" style="enable-background:new 0 0 36 36;" xml:space="preserve">
<style type="text/css">
	.st0{fill:#FFFDFA;}
	.st1{fill:#191326;}
</style>
<g>
	<path class="st0" d="M18,36c9.941,0,18-8.059,18-18S27.941,0,18,0S0,8.059,0,18S8.059,36,18,36z"/>
	<path class="st1" d="M18.155,30.75c-0.129,0-0.194,0-0.259-0.065l-7.888-4.947l-0.194-0.195c0-0.065,0-0.065-0.065-0.13v-0.26
		l2.587-11.846c0-0.065,0-0.065,0.065-0.13c0,0,0-0.065,0.065-0.065l5.302-7.29c0.129-0.13,0.258-0.195,0.452-0.195
		s0.323,0.065,0.453,0.195l5.302,7.29c0.065,0.065,0.065,0.13,0.065,0.195l2.586,11.846v0.26c0,0.065,0,0.065-0.065,0.13
		l-0.194,0.195l-7.888,4.947C18.349,30.75,18.285,30.75,18.155,30.75z M20.16,25.803l-1.034,3.19l5.108-3.19H20.16z M12.142,25.803
		l5.107,3.19l-1.034-3.19H12.142z M17.315,25.803l0.84,2.669l0.84-2.669H17.315z M20.483,24.697h4.655l-2.974-5.338L20.483,24.697z
		 M16.992,24.697h2.392l2.069-6.574l-3.298-5.793l-3.298,5.793L16.992,24.697z M11.172,24.697h4.655l-1.681-5.338L11.172,24.697
		L11.172,24.697z M12.918,15.519l-1.423,6.444l2.198-3.905L12.918,15.519z M22.616,17.993l2.198,3.905l-1.423-6.444L22.616,17.993z
		 M13.435,13.501l1.034,3.19l3.168-5.663v-3.32C17.638,7.708,13.435,13.501,13.435,13.501z M18.737,11.093l3.168,5.663l1.034-3.19
		l-4.203-5.793V11.093L18.737,11.093z"/>
</g>
</svg>
