<?xml version="1.0" encoding="utf-8"?>
<!-- Generator: Adobe Illustrator 25.2.3, SVG Export Plug-In . SVG Version: 6.00 Build 0)  -->
<svg version="1.1" id="Layer_1" xmlns="http://www.w3.org/2000/svg" xmlns:xlink="http://www.w3.org/1999/xlink" x="0px" y="0px"
	 viewBox="0 0 36 36" style="enable-background:new 0 0 36 36;" xml:space="preserve">
<style type="text/css">
	.st0{fill:#E3F0F2;}
	.st1{fill:url(#SVGID_1_);}
</style>
<g>
	<ellipse class="st0" cx="18" cy="18" rx="18" ry="18"/>
	<radialGradient id="SVGID_1_" cx="18" cy="18" r="11.5846" gradientUnits="userSpaceOnUse">
		<stop  offset="0" style="stop-color:#1C7ECD"/>
		<stop  offset="0.9988" style="stop-color:#0F426C"/>
	</radialGradient>
	<path class="st1" d="M21.792,6.846c0.04,0.018,0.08,0.051,0.12,0.052c0.352,0.01,0.68,0.123,1.009,0.231
		c0.523,0.173,0.981,0.453,1.401,0.807c0.346,0.291,0.654,0.61,0.89,0.998c0.15,0.247,0.329,0.479,0.459,0.736
		c0.133,0.264,0.236,0.547,0.329,0.829c0.123,0.374,0.23,0.753,0.332,1.133c0.043,0.159,0.058,0.326,0.078,0.491
		c0.031,0.259,0.064,0.518,0.079,0.778c0.006,0.094,0.028,0.156,0.105,0.205c0.25,0.159,0.506,0.311,0.746,0.484
		c0.225,0.161,0.443,0.335,0.647,0.522c0.212,0.194,0.407,0.407,0.604,0.616c0.289,0.307,0.55,0.635,0.745,1.012
		c0.101,0.195,0.223,0.38,0.32,0.577c0.067,0.137,0.111,0.285,0.159,0.431c0.212,0.647,0.214,1.312,0.136,1.976
		c-0.03,0.261-0.121,0.521-0.219,0.768c-0.122,0.308-0.267,0.61-0.428,0.9c-0.114,0.206-0.261,0.398-0.412,0.58
		c-0.186,0.224-0.386,0.438-0.592,0.645c-0.158,0.16-0.331,0.306-0.503,0.451c-0.184,0.157-0.368,0.315-0.564,0.456
		c-0.204,0.147-0.421,0.276-0.636,0.409c-0.22,0.136-0.439,0.276-0.667,0.398c-0.186,0.1-0.384,0.178-0.578,0.262
		c-0.287,0.123-0.573,0.25-0.864,0.362c-0.24,0.092-0.487,0.171-0.734,0.242c-0.385,0.111-0.774,0.207-1.159,0.319
		c-0.069,0.02-0.139,0.072-0.187,0.128c-0.185,0.212-0.353,0.438-0.542,0.645c-0.199,0.218-0.416,0.421-0.624,0.631
		c-0.144,0.145-0.275,0.305-0.429,0.438c-0.42,0.36-0.838,0.725-1.279,1.059c-0.327,0.248-0.676,0.474-1.037,0.668
		c-0.397,0.213-0.822,0.374-1.231,0.564c-0.391,0.181-0.8,0.296-1.223,0.368c-0.245,0.042-0.488,0.092-0.732,0.139
		c-0.325,0-0.65,0-0.975,0c-0.341-0.076-0.687-0.135-1.021-0.234c-0.316-0.094-0.617-0.227-0.903-0.404
		c-0.36-0.223-0.689-0.474-0.99-0.773c-0.333-0.331-0.596-0.714-0.827-1.115c-0.172-0.298-0.299-0.626-0.416-0.951
		c-0.149-0.416-0.298-0.836-0.389-1.267c-0.085-0.402-0.092-0.821-0.139-1.231c-0.006-0.051-0.036-0.116-0.076-0.142
		c-0.33-0.22-0.676-0.418-0.995-0.652c-0.477-0.348-0.914-0.741-1.299-1.195c-0.429-0.506-0.779-1.049-1.011-1.674
		c-0.141-0.378-0.226-0.766-0.264-1.16c-0.027-0.28,0.028-0.566,0.035-0.85c0.008-0.364,0.112-0.708,0.249-1.037
		c0.137-0.33,0.299-0.655,0.493-0.955c0.2-0.311,0.441-0.597,0.683-0.879c0.166-0.194,0.357-0.37,0.55-0.539
		c0.199-0.174,0.409-0.336,0.623-0.491c0.205-0.148,0.418-0.284,0.632-0.419c0.17-0.108,0.345-0.207,0.52-0.308
		c0.112-0.064,0.224-0.13,0.34-0.185c0.242-0.115,0.486-0.223,0.73-0.333c0.139-0.062,0.276-0.13,0.419-0.181
		c0.266-0.095,0.54-0.167,0.803-0.27c0.407-0.159,0.824-0.278,1.251-0.365c0.147-0.03,0.292-0.069,0.395-0.209
		c0.178-0.24,0.359-0.481,0.565-0.695c0.366-0.378,0.749-0.74,1.131-1.102c0.193-0.182,0.392-0.359,0.601-0.523
		c0.295-0.232,0.592-0.465,0.904-0.671c0.322-0.213,0.661-0.402,1-0.588c0.214-0.118,0.435-0.224,0.662-0.312
		c0.305-0.119,0.618-0.222,0.93-0.321c0.35-0.111,0.702-0.213,1.074-0.225c0.055-0.002,0.109-0.035,0.163-0.053
		C21.104,6.846,21.448,6.846,21.792,6.846z M15.825,23.645c0.049-0.278,0.093-0.518,0.133-0.758c0.013-0.075,0.01-0.153,0.023-0.228
		c0.063-0.361,0.132-0.722,0.195-1.083c0.034-0.195,0.055-0.393,0.091-0.588c0.059-0.323,0.13-0.643,0.187-0.966
		c0.08-0.456,0.153-0.914,0.227-1.371c0.056-0.346,0.106-0.692,0.161-1.038c0.019-0.121,0.044-0.241,0.068-0.361
		c0.034-0.167-0.003-0.236-0.132-0.286c-0.151-0.058-0.299-0.124-0.445-0.194c-0.316-0.151-0.628-0.31-0.945-0.46
		c-0.338-0.159-0.68-0.309-1.018-0.467c-0.295-0.138-0.587-0.284-0.881-0.424c-0.208-0.099-0.417-0.197-0.627-0.291
		c-0.207-0.093-0.42-0.176-0.626-0.272c-0.287-0.134-0.57-0.274-0.855-0.414c-0.222-0.109-0.446-0.216-0.664-0.334
		c-0.191-0.104-0.323-0.099-0.504,0.039c-0.029,0.022-0.059,0.044-0.089,0.065c-0.297,0.198-0.603,0.383-0.888,0.596
		c-0.233,0.175-0.44,0.385-0.661,0.577c-0.295,0.255-0.524,0.565-0.728,0.892c-0.109,0.175-0.214,0.357-0.29,0.547
		c-0.091,0.228-0.18,0.465-0.215,0.706c-0.072,0.492-0.065,0.985,0.126,1.458c0.084,0.207,0.153,0.422,0.263,0.614
		c0.125,0.217,0.279,0.42,0.438,0.615c0.138,0.169,0.297,0.321,0.454,0.473c0.214,0.206,0.425,0.417,0.657,0.602
		c0.208,0.167,0.438,0.306,0.664,0.449c0.171,0.108,0.345,0.211,0.525,0.303c0.304,0.154,0.612,0.3,0.921,0.444
		c0.167,0.078,0.335,0.154,0.508,0.214c0.281,0.097,0.566,0.182,0.851,0.268c0.299,0.091,0.596,0.19,0.9,0.265
		c0.365,0.089,0.735,0.157,1.103,0.232c0.07,0.014,0.142,0.013,0.213,0.026C15.246,23.54,15.524,23.591,15.825,23.645z
		 M24.447,18.202c0.038-0.157,0.068-0.304,0.111-0.447c0.077-0.258,0.175-0.511,0.239-0.773c0.089-0.364,0.171-0.732,0.226-1.102
		c0.067-0.45,0.117-0.903,0.15-1.357c0.061-0.829,0.008-1.654-0.118-2.475c-0.012-0.08-0.011-0.163-0.031-0.241
		c-0.07-0.273-0.142-0.545-0.222-0.815c-0.045-0.15-0.097-0.3-0.164-0.44c-0.099-0.206-0.206-0.41-0.326-0.605
		c-0.145-0.235-0.308-0.46-0.486-0.723c-1.833,2.393-3.637,4.746-5.448,7.109C20.418,16.961,22.422,17.579,24.447,18.202z
		 M22.992,8.585c-0.136-0.064-0.249-0.129-0.37-0.17c-0.236-0.081-0.472-0.182-0.716-0.214c-0.718-0.094-1.43-0.041-2.12,0.197
		c-0.241,0.083-0.479,0.175-0.713,0.276c-0.202,0.087-0.4,0.184-0.591,0.292c-0.372,0.21-0.748,0.416-1.102,0.653
		c-0.285,0.191-0.543,0.421-0.807,0.642c-0.206,0.172-0.406,0.352-0.6,0.538c-0.153,0.147-0.293,0.308-0.439,0.463
		c-0.175,0.186-0.353,0.369-0.524,0.558c-0.018,0.02-0.016,0.079,0.001,0.105c0.204,0.321,0.41,0.641,0.619,0.959
		c0.156,0.237,0.319,0.471,0.476,0.708c0.145,0.218,0.287,0.439,0.429,0.659c0.147,0.227,0.295,0.454,0.441,0.681
		c0.172,0.267,0.342,0.534,0.526,0.821C19.341,13.35,21.162,10.974,22.992,8.585z M11.026,23.765
		c-0.003,0.021-0.011,0.04-0.007,0.056c0.091,0.372,0.171,0.747,0.281,1.113c0.087,0.291,0.189,0.582,0.326,0.853
		c0.131,0.258,0.31,0.494,0.478,0.732c0.334,0.475,0.789,0.809,1.306,1.052c0.34,0.16,0.714,0.246,1.085,0.274
		c0.352,0.027,0.713-0.005,1.065-0.053c0.291-0.039,0.576-0.131,0.859-0.216c0.233-0.07,0.467-0.147,0.687-0.249
		c0.232-0.108,0.44-0.268,0.674-0.371c0.353-0.157,0.661-0.382,0.97-0.605c0.3-0.217,0.593-0.447,0.875-0.687
		c0.259-0.22,0.5-0.461,0.77-0.713c-0.063-0.008-0.094-0.018-0.124-0.014c-0.127,0.015-0.253,0.042-0.38,0.049
		c-0.581,0.03-1.161,0.061-1.742,0.078c-0.222,0.007-0.446-0.025-0.669-0.03c-0.665-0.017-1.33-0.014-1.988-0.144
		c-0.297-0.059-0.602-0.077-0.903-0.113c-0.066-0.008-0.134-0.006-0.199-0.021c-0.374-0.085-0.749-0.17-1.121-0.262
		c-0.318-0.079-0.635-0.163-0.95-0.253c-0.16-0.046-0.315-0.109-0.471-0.167C11.575,23.973,11.304,23.87,11.026,23.765z
		 M26.508,14.616c-0.275,2.946-1.228,5.647-2.743,8.165c0.052,0.004,0.088-0.003,0.12-0.016c0.144-0.058,0.287-0.117,0.429-0.178
		c0.254-0.108,0.511-0.21,0.759-0.328c0.229-0.109,0.453-0.229,0.67-0.359c0.267-0.159,0.529-0.326,0.786-0.502
		c0.152-0.104,0.296-0.223,0.432-0.347c0.268-0.245,0.553-0.479,0.786-0.756c0.23-0.273,0.434-0.578,0.593-0.897
		c0.142-0.285,0.24-0.601,0.299-0.915c0.102-0.545,0.007-1.077-0.187-1.598c-0.122-0.325-0.297-0.615-0.503-0.884
		c-0.218-0.284-0.46-0.554-0.717-0.803C27.012,14.987,26.755,14.813,26.508,14.616z M21.275,23.465
		c-0.585-0.906-1.147-1.782-1.715-2.654c-0.57-0.875-1.146-1.745-1.731-2.634c-0.03,0.093-0.062,0.161-0.074,0.233
		c-0.08,0.471-0.154,0.942-0.232,1.413c-0.045,0.268-0.096,0.535-0.14,0.804c-0.055,0.339-0.106,0.679-0.157,1.019
		c-0.013,0.09-0.016,0.181-0.031,0.27c-0.064,0.372-0.133,0.743-0.197,1.114c-0.039,0.226-0.073,0.453-0.111,0.69
		c0.029,0.004,0.065,0.014,0.101,0.015c0.301,0.008,0.601,0.017,0.902,0.02c0.818,0.008,1.634-0.037,2.445-0.148
		C20.632,23.565,20.928,23.517,21.275,23.465z M22.129,22.842c0.787-1.158,1.449-2.349,1.94-3.647
		c-1.811-0.559-3.587-1.107-5.364-1.655c-0.006,0.008-0.012,0.017-0.019,0.025C19.829,19.318,20.972,21.07,22.129,22.842z
		 M15.992,15.445c0.011-0.013,0.022-0.026,0.033-0.039c-0.217-0.331-0.434-0.661-0.649-0.992c-0.154-0.237-0.306-0.476-0.459-0.714
		c-0.153-0.238-0.324-0.466-0.457-0.715c-0.145-0.271-0.324-0.362-0.617-0.236c-0.136,0.058-0.294,0.06-0.438,0.103
		c-0.37,0.111-0.738,0.227-1.104,0.349c-0.201,0.067-0.396,0.151-0.597,0.229C13.145,14.108,14.569,14.777,15.992,15.445z"/>
</g>
</svg>
