<?xml version="1.0" encoding="utf-8"?>
<!-- Generator: Adobe Illustrator 25.2.1, SVG Export Plug-In . SVG Version: 6.00 Build 0)  -->
<svg version="1.1" id="Layer_1" xmlns="http://www.w3.org/2000/svg" xmlns:xlink="http://www.w3.org/1999/xlink" x="0px" y="0px"
	 viewBox="0 0 36 36" style="enable-background:new 0 0 36 36;" xml:space="preserve">
<style type="text/css">
	.st0{fill-rule:evenodd;clip-rule:evenodd;fill:#FFFFFF;filter:url(#Adobe_OpacityMaskFilter);}
	.st1{mask:url(#A_2_);}
	.st2{fill-rule:evenodd;clip-rule:evenodd;fill:#0090FF;}
	.st3{fill-rule:evenodd;clip-rule:evenodd;fill:#FFFFFF;}
</style>
<defs>
	<filter id="Adobe_OpacityMaskFilter" filterUnits="userSpaceOnUse" x="0.001" y="0" width="35.999" height="36">
		<feColorMatrix  type="matrix" values="1 0 0 0 0  0 1 0 0 0  0 0 1 0 0  0 0 0 1 0"/>
	</filter>
</defs>
<mask maskUnits="userSpaceOnUse" x="0.001" y="0" width="35.999" height="36" id="A_2_">
	<path class="st0" d="M0.001,0.001h35.999V36H0.001V0.001z"/>
</mask>
<g class="st1">
	<path class="st2" d="M18,36C8.1,36,0.001,27.9,0.001,17.91c0.09-9.9,8.1-17.999,18.09-17.91c9.9,0.09,17.909,8.1,17.909,18.18
		C35.91,27.99,27.9,36,18,36z"/>
	<path class="st3" d="M19.71,15.841l-0.54,2.88l5.13,0.72l-0.36,1.35l-5.04-0.72c-0.36,1.17-0.54,2.43-0.99,3.51l-1.44,3.69
		c-0.72,1.53-1.98,2.61-3.69,2.88c-0.99,0.18-2.07,0.09-2.88-0.54c-0.27-0.18-0.54-0.54-0.54-0.81c0-0.36,0.18-0.81,0.45-0.99
		c0.18-0.09,0.63,0,0.9,0.09c0.289,0.291,0.532,0.625,0.72,0.99c0.54,0.72,1.26,0.81,1.98,0.27c0.81-0.72,1.26-1.71,1.53-2.7
		c0.54-2.16,1.08-4.23,1.53-6.39v-0.36l-4.77-0.72l0.18-1.35l4.95,0.72l0.63-2.79l-5.13-0.81l0.18-1.44l5.31,0.72
		c0.18-0.54,0.27-0.99,0.45-1.44c0.45-1.62,0.9-3.24,1.98-4.68s2.34-2.34,4.23-2.25c0.81,0,1.62,0.27,2.16,0.9
		c0.09,0.09,0.27,0.27,0.27,0.45c0,0.36,0,0.81-0.27,1.08c-0.36,0.27-0.81,0.18-1.17-0.18c-0.27-0.27-0.45-0.54-0.72-0.81
		c-0.54-0.72-1.35-0.81-1.98-0.18c-0.45,0.45-0.9,1.08-1.17,1.71c-0.63,1.89-1.08,3.87-1.71,5.85l4.95,0.72l-0.36,1.35l-4.77-0.72
		V15.841z"/>
</g>
</svg>
