<?xml version="1.0" encoding="utf-8"?>
<!-- Generator: Adobe Illustrator 25.2.1, SVG Export Plug-In . SVG Version: 6.00 Build 0)  -->
<svg version="1.1" id="Layer_1" xmlns="http://www.w3.org/2000/svg" xmlns:xlink="http://www.w3.org/1999/xlink" x="0px" y="0px"
	 viewBox="0 0 36 36" style="enable-background:new 0 0 36 36;" xml:space="preserve">
<style type="text/css">
	.st0{fill-rule:evenodd;clip-rule:evenodd;fill:#FFFFFF;}
	.st1{fill:#005AD3;}
	.st2{opacity:0.5;}
	.st3{fill-rule:evenodd;clip-rule:evenodd;fill:#005AD3;}
</style>
<g id="g914" transform="matrix(0.8117829,0,0,0.8117829,41.663018,220.27234)">
	<g id="path891">
		<path class="st0" d="M-7.814-249.171c0,11.784-9.552,21.336-21.335,21.336c-11.784,0-21.335-9.552-21.335-21.336
			c0-11.784,9.551-21.335,21.335-21.335C-17.366-270.506-7.814-260.955-7.814-249.171z"/>
		<path class="st1" d="M-29.149-226.997c-12.226,0-22.174-9.947-22.174-22.174c0-12.226,9.947-22.173,22.174-22.173
			s22.173,9.947,22.173,22.173C-6.976-236.944-16.923-226.997-29.149-226.997z M-29.149-269.667
			c-11.302,0-20.497,9.195-20.497,20.496c0,11.302,9.195,20.498,20.497,20.498c11.302,0,20.497-9.195,20.497-20.498
			C-8.652-260.473-17.847-269.667-29.149-269.667z"/>
	</g>
	<g id="path893" class="st2">
		<path class="st1" d="M-29.043-230.487c-0.544,0-1.096-0.024-1.642-0.072c-1.479-0.13-2.935-0.433-4.329-0.902
			c-0.219-0.074-0.337-0.312-0.263-0.531c0.074-0.219,0.312-0.336,0.531-0.263c1.33,0.448,2.721,0.738,4.134,0.862
			c3.522,0.309,7.073-0.447,10.146-2.15c0.202-0.112,0.458-0.039,0.57,0.163c0.112,0.202,0.039,0.458-0.163,0.57
			C-22.802-231.291-25.909-230.487-29.043-230.487z M-37.346-232.479c-0.064,0-0.13-0.015-0.191-0.046
			c-4.643-2.377-8.095-6.625-9.471-11.654c-0.061-0.223,0.07-0.454,0.294-0.515c0.224-0.06,0.454,0.071,0.515,0.294
			c1.314,4.803,4.61,8.859,9.044,11.129c0.206,0.106,0.288,0.358,0.182,0.564C-37.046-232.562-37.193-232.479-37.346-232.479z
			 M-18.025-234.224c-0.126,0-0.251-0.057-0.333-0.165c-0.141-0.184-0.106-0.447,0.078-0.587c3.956-3.025,6.473-7.604,6.907-12.562
			c0.046-0.521,0.069-1.049,0.069-1.569c0-1.938-0.315-3.849-0.936-5.679c-0.075-0.219,0.043-0.457,0.262-0.532
			c0.219-0.074,0.457,0.043,0.532,0.262c0.651,1.917,0.981,3.918,0.98,5.948c0,0.544-0.024,1.097-0.072,1.642
			c-0.454,5.192-3.091,9.987-7.233,13.155C-17.847-234.252-17.937-234.224-18.025-234.224z M-47.116-246.495
			c-0.209,0-0.39-0.157-0.416-0.37c-0.087-0.726-0.13-1.466-0.13-2.2c0-0.544,0.024-1.097,0.072-1.642
			c0.343-3.916,1.877-7.554,4.437-10.52c0.151-0.175,0.416-0.195,0.591-0.043c0.175,0.151,0.195,0.416,0.043,0.591
			c-2.445,2.832-3.91,6.306-4.237,10.046c-0.046,0.521-0.069,1.049-0.069,1.569c0,0.701,0.042,1.408,0.125,2.101
			c0.027,0.23-0.137,0.438-0.367,0.466C-47.082-246.496-47.099-246.495-47.116-246.495z M-12.886-256.962
			c-0.152,0-0.299-0.083-0.373-0.228c-2.282-4.44-6.341-7.733-11.136-9.033c-0.223-0.06-0.355-0.291-0.295-0.514
			c0.06-0.223,0.29-0.356,0.514-0.295c5.021,1.362,9.272,4.809,11.662,9.459c0.106,0.206,0.025,0.459-0.181,0.564
			C-12.756-256.977-12.822-256.962-12.886-256.962z M-40.944-262.425c-0.118,0-0.235-0.049-0.317-0.145
			c-0.151-0.175-0.132-0.44,0.043-0.591c3.378-2.916,7.686-4.521,12.133-4.522c0.545,0,1.097,0.024,1.642,0.072
			c0.195,0.017,0.389,0.037,0.582,0.06c0.23,0.027,0.394,0.236,0.367,0.466c-0.027,0.23-0.235,0.394-0.466,0.367
			c-0.185-0.022-0.37-0.041-0.556-0.057c-0.521-0.046-1.049-0.069-1.569-0.069c-4.245,0-8.36,1.534-11.585,4.318
			C-40.749-262.458-40.847-262.425-40.944-262.425z"/>
	</g>
	<g id="path895">
		<path class="st3" d="M-24.671-262.676c0.798,0,1.443,0.646,1.443,1.446c0,0.801-0.647,1.447-1.443,1.447h-3.635v2.644h3.123
			c0.798,0,1.443,0.647,1.443,1.447c0,0.8-0.647,1.447-1.443,1.447h-3.123v5.347c2.099,0.375,3.864,1.728,4.802,3.575
			c0.974,0.579,1.626,1.645,1.623,2.863v0.451c0,1.237-0.67,2.318-1.668,2.891c-1.127,2.136-3.365,3.59-5.942,3.59
			c-2.577,0-4.814-1.454-5.941-3.59c-0.996-0.577-1.669-1.656-1.669-2.891v-0.451c0-1.219,0.65-2.283,1.624-2.863
			c0.86-1.691,2.414-2.969,4.285-3.459v-12.448c0-0.8,0.647-1.446,1.443-1.446H-24.671z M-25.743-245.399h-7.496
			c-1.602,0-2.901,1.293-2.901,2.89v0.389c0,1.596,1.3,2.891,2.901,2.891h7.494c1.605,0,2.904-1.295,2.904-2.891v-0.389
			C-22.841-244.106-24.14-245.399-25.743-245.399L-25.743-245.399z"/>
	</g>
	<g id="path897">
		<path class="st3" d="M-32.576-241.149c0.606,0,1.097-0.491,1.097-1.097c0-0.605-0.49-1.097-1.097-1.097
			c-0.605,0-1.097,0.491-1.097,1.097C-33.673-241.64-33.181-241.149-32.576-241.149z"/>
	</g>
	<g id="path899">
		<path class="st3" d="M-25.994-241.149c0.606,0,1.097-0.491,1.097-1.097c0-0.605-0.491-1.097-1.097-1.097
			c-0.605,0-1.097,0.491-1.097,1.097C-27.091-241.64-26.6-241.149-25.994-241.149z"/>
	</g>
</g>
</svg>
