<?xml version="1.0" encoding="utf-8"?>
<!-- Generator: Adobe Illustrator 25.2.1, SVG Export Plug-In . SVG Version: 6.00 Build 0)  -->
<svg version="1.1" id="Layer_1" xmlns="http://www.w3.org/2000/svg" xmlns:xlink="http://www.w3.org/1999/xlink" x="0px" y="0px"
	 viewBox="0 0 36 36" style="enable-background:new 0 0 36 36;" xml:space="preserve">
<style type="text/css">
	.st0{fill:#FFFFFF;}
	.st1{fill:url(#SVGID_1_);}
	.st2{fill:url(#SVGID_2_);}
	.st3{fill:url(#SVGID_3_);}
	.st4{fill:url(#SVGID_4_);}
</style>
<g>
	<circle class="st0" cx="18" cy="18" r="18"/>
	
		<linearGradient id="SVGID_1_" gradientUnits="userSpaceOnUse" x1="30.2364" y1="20.9337" x2="17.9894" y2="7.6261" gradientTransform="matrix(1 0 0 -1 0 38)">
		<stop  offset="0.21" style="stop-color:#02C86A"/>
		<stop  offset="0.336" style="stop-color:#14EA85"/>
	</linearGradient>
	<path class="st1" d="M32.109,18.79l-1.885-1.735l-2.138,2.341c-0.498,0.545-1.223,0.824-1.957,0.751l-1.24-0.123
		c-0.489-0.049-0.972,0.137-1.304,0.501l-7.443,8.15l1.886,1.735l8.502-9.309c0.383-0.42,0.963-0.598,1.514-0.465l1.059,0.254
		c0.552,0.132,1.131-0.046,1.514-0.465L32.109,18.79z"/>
	
		<linearGradient id="SVGID_2_" gradientUnits="userSpaceOnUse" x1="26.1915" y1="24.6559" x2="13.9446" y2="11.3484" gradientTransform="matrix(1 0 0 -1 0 38)">
		<stop  offset="0.322" style="stop-color:#02C86A"/>
		<stop  offset="0.506" style="stop-color:#11ED85"/>
	</linearGradient>
	<path class="st2" d="M28.056,15.06l-1.886-1.735l-4.058,4.444c-0.498,0.546-1.223,0.824-1.957,0.751l-1.24-0.123
		c-0.489-0.048-0.972,0.137-1.304,0.501l-5.523,6.047l1.885,1.735l6.582-7.206c0.383-0.42,0.963-0.598,1.514-0.465l1.059,0.254
		c0.552,0.132,1.131-0.046,1.514-0.465L28.056,15.06z"/>
	
		<linearGradient id="SVGID_3_" gradientUnits="userSpaceOnUse" x1="22.1465" y1="28.3784" x2="9.8999" y2="15.0708" gradientTransform="matrix(1 0 0 -1 0 38)">
		<stop  offset="0.501" style="stop-color:#1FD17D"/>
		<stop  offset="0.641" style="stop-color:#2CE28C"/>
	</linearGradient>
	<path class="st3" d="M24.003,11.33l-1.885-1.735l-5.979,6.547c-0.498,0.546-1.223,0.824-1.957,0.751l-1.24-0.123
		c-0.489-0.048-0.972,0.137-1.304,0.501l-3.602,3.944l1.885,1.735l4.661-5.103c0.383-0.42,0.963-0.598,1.514-0.465l1.059,0.254
		c0.551,0.133,1.131-0.046,1.514-0.465L24.003,11.33z"/>
	
		<linearGradient id="SVGID_4_" gradientUnits="userSpaceOnUse" x1="18.1018" y1="32.1009" x2="5.8551" y2="18.7933" gradientTransform="matrix(1 0 0 -1 0 38)">
		<stop  offset="0.65" style="stop-color:#1BC675"/>
		<stop  offset="0.797" style="stop-color:#0FD879"/>
	</linearGradient>
	<path class="st4" d="M19.95,7.6l-1.885-1.735l-7.9,8.65c-0.498,0.545-1.223,0.824-1.957,0.751l-1.24-0.123
		c-0.489-0.049-0.972,0.137-1.305,0.501l-1.681,1.841l1.885,1.735l2.74-3c0.383-0.42,0.963-0.598,1.514-0.465l1.059,0.254
		c0.551,0.132,1.131-0.046,1.514-0.465L19.95,7.6z"/>
</g>
</svg>
