<?xml version="1.0" encoding="utf-8"?>
<!-- Generator: Adobe Illustrator 25.2.1, SVG Export Plug-In . SVG Version: 6.00 Build 0)  -->
<svg version="1.1" id="Layer_1" xmlns="http://www.w3.org/2000/svg" xmlns:xlink="http://www.w3.org/1999/xlink" x="0px" y="0px"
	 viewBox="0 0 36 36" style="enable-background:new 0 0 36 36;" xml:space="preserve">
<style type="text/css">
	.st0{fill:#FFFFFF;}
	.st1{fill:url(#SVGID_1_);}
</style>
<g>
	<ellipse class="st0" cx="18" cy="18" rx="18" ry="18"/>
	
		<linearGradient id="SVGID_1_" gradientUnits="userSpaceOnUse" x1="6.7986" y1="19.2498" x2="29.6366" y2="19.2498" gradientTransform="matrix(1 0 0 -1 0 38)">
		<stop  offset="0" style="stop-color:#7CB7FF"/>
		<stop  offset="1" style="stop-color:#BA6DF6"/>
	</linearGradient>
	<path class="st1" d="M20.882,7.022l-2.62,2.62l0.53,0.53c0.298,0.298,0.782,0.298,1.08,0l2.62-2.62l-0.53-0.53
		c-0.149-0.149-0.345-0.224-0.54-0.224C21.226,6.799,21.031,6.873,20.882,7.022z M14.255,7.022l-0.53,0.53l2.62,2.62
		c0.298,0.298,0.782,0.298,1.08,0l0.53-0.53l-2.62-2.62c-0.149-0.149-0.345-0.224-0.54-0.224S14.404,6.873,14.255,7.022z
		 M23.349,10.45l-4.95,4.95l1.002,1.002c0.563,0.563,1.478,0.563,2.041,0l4.95-4.95L25.39,10.45
		c-0.282-0.282-0.651-0.422-1.02-0.422C24,10.028,23.631,10.168,23.349,10.45z M10.827,10.45l-1.002,1.002l4.95,4.95
		c0.563,0.563,1.477,0.563,2.041,0l1.002-1.002l-4.95-4.95c-0.282-0.282-0.651-0.422-1.02-0.422
		C11.478,10.028,11.109,10.168,10.827,10.45z M17.568,10.336l-0.53,0.53l1.07,1.07l1.07-1.07l-0.53-0.53
		c-0.149-0.149-0.345-0.224-0.54-0.224C17.913,10.112,17.718,10.187,17.568,10.336z M26.818,15.27l-8.227,8.227l1.666,1.666
		c0.936,0.936,2.456,0.936,3.392,0l8.227-8.227l-1.666-1.666c-0.468-0.468-1.082-0.702-1.696-0.702
		C27.9,14.568,27.286,14.802,26.818,15.27z M6.008,15.27l-1.666,1.666l8.227,8.227c0.936,0.936,2.455,0.936,3.391,0l1.666-1.666
		L9.399,15.27c-0.468-0.468-1.082-0.702-1.696-0.702C7.09,14.568,6.476,14.802,6.008,15.27z M17.088,16.711l-1.002,1.002
		l2.023,2.023l2.023-2.023l-1.002-1.002c-0.282-0.282-0.651-0.422-1.02-0.422C17.739,16.288,17.37,16.429,17.088,16.711z
		 M16.413,25.675l-1.666,1.666l3.361,3.361l3.361-3.361l-1.665-1.666c-0.468-0.468-1.082-0.702-1.696-0.702
		C17.495,24.973,16.881,25.207,16.413,25.675z"/>
</g>
</svg>
