<?xml version="1.0" encoding="utf-8"?>
<!-- Generator: Adobe Illustrator 25.2.1, SVG Export Plug-In . SVG Version: 6.00 Build 0)  -->
<svg version="1.1" id="Layer_1" xmlns="http://www.w3.org/2000/svg" xmlns:xlink="http://www.w3.org/1999/xlink" x="0px" y="0px"
	 viewBox="0 0 36 36" style="enable-background:new 0 0 36 36;" xml:space="preserve">
<style type="text/css">
	.st0{fill:#131735;}
	.st1{fill:#FFFFFF;}
	.st2{fill:#4BA8DB;}
</style>
<g>
	<g>
		<circle class="st0" cx="18" cy="18" r="18"/>
	</g>
</g>
<g>
	<path class="st1" d="M11.006,26.457c0-0.293,0.002-0.596,0-0.899c-0.024-3.574-0.044-7.148-0.077-10.723
		c-0.009-0.978,0.268-1.78,1.232-2.193c0.906-0.388,1.625-0.049,2.306,0.57c1.654,1.506,3.338,2.978,4.999,4.477
		c0.847,0.764,0.856,1.804,0.053,2.633c-0.811,0.839-2.148,0.849-2.972,0.022c-0.793-0.796-0.799-1.898-0.01-2.658
		c0.254-0.245,0.516-0.48,0.831-0.772c-0.767-0.683-1.471-1.31-2.351-2.094c-0.653,0.887-1.483,1.633-1.831,2.56
		c-0.908,2.415,0.451,5.183,2.839,6.17c2.417,0.999,5.231,0.006,6.435-2.27c0.936-1.768,0.745-4.068-0.5-5.234
		c-1.895-1.775-3.803-3.538-5.752-5.253c-1.576-1.386-3.403-1.65-5.315-0.798c-1.93,0.86-2.865,2.436-2.881,4.53
		c-0.024,3.034-0.01,6.069-0.003,9.103c0.001,0.306,0.032,0.619,0.101,0.917C8.406,25.83,9.608,26.642,11.006,26.457z"/>
	<path class="st1" d="M20.812,13.864c0.227-0.212,0.42-0.376,0.594-0.558c0.65-0.68,1.386-1.077,2.339-0.68
		c0.993,0.415,1.277,1.205,1.26,2.236c-0.052,3.29-0.051,6.581-0.07,9.872c-0.003,0.585,0,1.169,0,1.745
		c1.666,0.137,2.932-0.912,2.964-2.479c0.066-3.187,0.092-6.375,0.101-9.563c0.003-1.073-0.298-2.076-0.972-2.945
		c-2.153-2.776-6.186-2.562-8.359,0.478C19.375,12.595,20.084,13.221,20.812,13.864z"/>
	<path class="st1" d="M11.006,26.457c-1.398,0.185-2.6-0.627-2.895-1.913c-0.068-0.298-0.1-0.611-0.101-0.917
		c-0.007-3.034-0.021-6.069,0.003-9.103c0.016-2.094,0.951-3.67,2.881-4.53c1.911-0.851,3.739-0.587,5.315,0.798
		c1.95,1.715,3.857,3.478,5.752,5.253c1.245,1.166,1.436,3.465,0.5,5.234c-1.205,2.276-4.019,3.269-6.435,2.27
		c-2.388-0.987-3.747-3.755-2.839-6.17c0.348-0.927,1.178-1.673,1.831-2.56c0.88,0.784,1.584,1.41,2.351,2.094
		c-0.315,0.292-0.577,0.528-0.831,0.772c-0.789,0.76-0.783,1.863,0.01,2.658c0.823,0.826,2.16,0.816,2.972-0.022
		c0.802-0.829,0.793-1.869-0.053-2.633c-1.661-1.498-3.345-2.971-4.999-4.477c-0.681-0.62-1.4-0.959-2.306-0.57
		c-0.964,0.414-1.241,1.216-1.232,2.193c0.033,3.574,0.053,7.148,0.077,10.723C11.008,25.861,11.006,26.165,11.006,26.457z"/>
	<path class="st2" d="M20.812,13.864c-0.728-0.643-1.437-1.269-2.143-1.893c2.173-3.04,6.206-3.254,8.359-0.478
		c0.674,0.87,0.975,1.872,0.972,2.945c-0.009,3.188-0.035,6.376-0.101,9.563c-0.033,1.567-1.299,2.616-2.964,2.479
		c0-0.576-0.003-1.161,0-1.745c0.018-3.291,0.018-6.582,0.07-9.872c0.016-1.031-0.267-1.822-1.26-2.236
		c-0.953-0.398-1.689,0-2.339,0.68C21.232,13.488,21.039,13.652,20.812,13.864z"/>
</g>
</svg>
