<?xml version="1.0" encoding="utf-8"?>
<!-- Generator: Adobe Illustrator 25.2.1, SVG Export Plug-In . SVG Version: 6.00 Build 0)  -->
<svg version="1.1" id="Layer_1" xmlns="http://www.w3.org/2000/svg" xmlns:xlink="http://www.w3.org/1999/xlink" x="0px" y="0px"
	 viewBox="0 0 36 36" style="enable-background:new 0 0 36 36;" xml:space="preserve">
<style type="text/css">
	.st0{fill:#0F0230;}
	.st1{fill:url(#SVGID_1_);}
	.st2{fill:url(#SVGID_2_);}
</style>
<circle class="st0" cx="18" cy="18" r="18"/>
<g>
	<linearGradient id="SVGID_1_" gradientUnits="userSpaceOnUse" x1="8.8767" y1="27.3151" x2="30.28" y2="8.2728">
		<stop  offset="0" style="stop-color:#930980"/>
		<stop  offset="1" style="stop-color:#3299D5"/>
	</linearGradient>
	<path class="st1" d="M26.85,22.178c0.352-1.126,0.504-2.285,0.517-3.458c0.007-0.625-0.073-1.251-0.128-1.876
		c-0.109-1.235-0.427-2.444-0.885-3.594c-0.223-0.559-0.476-1.105-0.683-1.67c-0.193-0.525-0.353-1.054-0.62-1.549
		c-0.722-1.34-2.073-2.474-3.486-3.016c-1.671-0.641-3.549-0.615-5.29-0.318c-1.751,0.299-3.411,0.859-4.768,2.042
		c-1.795,1.563-2.84,3.594-3.461,5.85c-0.243,0.882-0.379,1.802-0.483,2.713c-0.206,1.804-0.293,3.616-0.044,5.426
		c0.074,0.538,0.159,1.075,0.251,1.61c0.05,0.289,0.172,0.541,0.474,0.653c0.673,0.249,1.343,0.508,2.021,0.741
		c0.812,0.279,1.628,0.546,2.449,0.796c0.878,0.268,1.761,0.523,2.647,0.76c0.67,0.179,1.349,0.328,2.026,0.48
		c0.804,0.181,1.606,0.377,2.417,0.521c0.802,0.142,1.612,0.26,2.423,0.328c0.8,0.067,1.61,0.11,2.409,0.064
		c0.333-0.019,0.697-0.131,1.014-0.231c0.272-0.086,0.542-0.238,0.671-0.492c0.297-0.583,0.072-1.6-0.171-2.165
		c-0.18-0.418-0.327-0.85-0.492-1.287c0.459-0.163,0.808-0.432,0.985-0.848c0.17-0.398,0.453-0.799,0.187-1.274
		C26.803,22.335,26.829,22.244,26.85,22.178z M8.178,17.578c0.128-0.888,0.221-1.788,0.447-2.652
		c0.273-1.045,0.679-2.048,1.21-3.003c0.846-1.523,1.925-2.818,3.504-3.599c0.709-0.351,1.481-0.59,2.243-0.817
		c1.255-0.374,2.553-0.351,3.842-0.274c1.957,0.116,3.503,1.021,4.689,2.566c0.019,0.025,0.025,0.061,0.051,0.127
		c-0.475-0.309-0.905-0.63-1.371-0.885c-1.249-0.684-2.566-0.932-3.997-0.695c-1.281,0.212-2.495,0.577-3.651,1.163
		c-1.265,0.641-2.366,1.494-3.222,2.618c-0.771,1.013-1.469,2.083-2.178,3.142c-0.084,0.126-0.087,0.362-0.034,0.515
		c0.338,0.966,0.947,1.761,1.642,2.496c0.088,0.093,0.176,0.185,0.264,0.278c-0.007,0.029-0.015,0.057-0.022,0.086
		c-1.128-0.2-2.257-0.389-3.424-0.155C8.172,18.164,8.137,17.865,8.178,17.578z M12.079,13.288
		c-0.095,0.065-0.184,0.139-0.276,0.208c0.562-0.972,1.298-1.78,2.168-2.462c1.189-0.931,2.541-1.505,4.006-1.846
		c0.729-0.169,1.458-0.307,2.206-0.251c0.669,0.05,1.317,0.205,1.92,0.56c-0.188,0-0.382,0.03-0.564-0.005
		c-0.811-0.156-1.599-0.005-2.389,0.144c-1.455,0.274-2.792,0.864-4.046,1.617C14.064,11.879,13.085,12.605,12.079,13.288z
		 M13.166,13.393c-0.104,1.273-0.208,2.547-0.318,3.896c-0.608-0.44-1.162-0.838-1.711-1.242c-0.216-0.159-0.422-0.332-0.693-0.546
		c0.898-0.739,1.763-1.452,2.628-2.165C13.104,13.355,13.135,13.374,13.166,13.393z M8.087,19.413
		c0.005-0.093,0.155-0.253,0.244-0.257c0.647-0.029,1.303-0.089,1.943-0.016c0.804,0.092,1.61,0.248,2.385,0.481
		c0.435,0.13,0.814,0.458,1.205,0.717c1.332,0.881,2.739,1.624,4.222,2.208c1.333,0.525,2.683,1.012,4.049,1.443
		c0.85,0.268,1.745,0.393,2.615,0.6c0.123,0.029,0.268,0.135,0.323,0.245c0.114,0.229,0.174,0.485,0.276,0.789
		c-0.284-0.013-0.538-0.009-0.788-0.04c-1.586-0.197-3.14-0.553-4.623-1.137c-1.18-0.465-2.305-1.07-3.464-1.591
		c-1.212-0.545-2.406-1.15-3.661-1.572c-1.289-0.433-2.644-0.638-4.023-0.395c-0.232,0.041-0.471,0.038-0.714,0.056
		C8.075,20.402,8.062,19.907,8.087,19.413z M25.68,26.495c0.047,0.291,0.052,0.589,0.077,0.884c0.026,0.296-0.158,0.439-0.4,0.494
		c-0.333,0.076-0.674,0.143-1.014,0.159c-1.175,0.054-2.342-0.034-3.498-0.26c-1.284-0.252-2.581-0.447-3.849-0.757
		c-1.46-0.357-2.903-0.791-4.341-1.234c-1.326-0.408-2.635-0.87-3.949-1.315c-0.093-0.032-0.229-0.109-0.241-0.182
		c-0.145-0.868-0.27-1.74-0.396-2.586c1.438-0.397,2.761-0.276,4.027,0.082c1.136,0.321,2.225,0.826,3.311,1.304
		c1.452,0.639,2.864,1.373,4.327,1.984c0.841,0.352,1.738,0.602,2.632,0.79c1.014,0.213,2.054,0.303,3.08,0.458
		C25.535,26.328,25.668,26.422,25.68,26.495z M25.249,23.896c-0.471-0.01-0.952-0.052-1.406-0.166
		c-0.934-0.234-1.86-0.506-2.778-0.8c-0.85-0.273-1.696-0.563-2.521-0.902c-1.507-0.62-2.959-1.352-4.323-2.249
		c-1.112-0.731-2.137-1.562-2.963-2.617c-0.048-0.061-0.086-0.129-0.083-0.247c0.389,0.272,0.774,0.549,1.167,0.815
		c2.127,1.435,4.365,2.668,6.763,3.585c1.249,0.478,2.527,0.886,3.803,1.29c1.032,0.326,2.101,0.44,3.214,0.36
		C26.108,23.474,25.721,23.905,25.249,23.896z M26.249,21.938c-0.069,0.273-0.204,0.396-0.516,0.402
		c-0.921,0.017-1.805-0.165-2.69-0.386c-1.928-0.482-3.77-1.204-5.553-2.058c-1.294-0.619-2.523-1.373-3.773-2.082
		c-0.088-0.05-0.152-0.23-0.145-0.344c0.07-1.242,0.208-2.482,0.22-3.724c0.007-0.75,0.319-1.164,0.937-1.522
		c1.28-0.741,2.58-1.432,4.009-1.824c1.114-0.306,2.272-0.449,3.402-0.152c0.635,0.167,1.276,0.463,1.806,0.85
		c0.928,0.677,1.619,1.57,1.913,2.724c0.203,0.797,0.486,1.578,0.637,2.383c0.144,0.764,0.163,1.551,0.237,2.328
		C26.7,19.691,26.533,20.822,26.249,21.938z"/>
	<linearGradient id="SVGID_2_" gradientUnits="userSpaceOnUse" x1="11.5303" y1="30.6152" x2="32.9254" y2="11.5802">
		<stop  offset="0" style="stop-color:#930980"/>
		<stop  offset="1" style="stop-color:#3299D5"/>
	</linearGradient>
	<path class="st2" d="M25.169,16.29c-0.131,0.121-0.157,0.406-0.076,0.564c0.142,0.279,0.263,0.58,0.326,0.885
		c0.146,0.7,0.074,1.378-0.25,2.034c-0.063,0.129,0.003,0.437,0.112,0.51c0.218,0.146,0.421-0.032,0.492-0.248
		c0.39-1.181,0.586-2.473-0.134-3.573c-0.045-0.069-0.095-0.138-0.166-0.18C25.342,16.207,25.24,16.225,25.169,16.29z"/>
</g>
</svg>
