<?xml version="1.0" encoding="utf-8"?>
<!-- Generator: Adobe Illustrator 25.2.1, SVG Export Plug-In . SVG Version: 6.00 Build 0)  -->
<svg version="1.1" id="Layer_1" xmlns="http://www.w3.org/2000/svg" xmlns:xlink="http://www.w3.org/1999/xlink" x="0px" y="0px"
	 viewBox="0 0 36 36" style="enable-background:new 0 0 36 36;" xml:space="preserve">
<style type="text/css">
	.st0{fill:#161A2D;}
	.st1{fill:#734CE2;}
</style>
<g>
	<g>
		<circle class="st0" cx="18" cy="18" r="18"/>
	</g>
</g>
<g>
	<circle class="st1" cx="17.971" cy="29.844" r="0.844"/>
	<path class="st1" d="M7.844,12.937c0.466,0,0.844-0.378,0.844-0.844c0-0.011-0.001-0.021-0.002-0.032l0.002,0.003l3.646-2.265
		c0.155,0.175,0.38,0.286,0.632,0.286c0.231,0,0.44-0.093,0.592-0.243l3.398,2.171c-0.002,0.026-0.004,0.053-0.004,0.08
		c0,0.563,0.456,1.019,1.019,1.019s1.019-0.456,1.019-1.019c0-0.018-0.002-0.036-0.003-0.054l3.521-2.132
		c0.152,0.146,0.358,0.236,0.585,0.236c0.466,0,0.844-0.378,0.844-0.844s-0.378-0.844-0.844-0.844c-0.459,0-0.831,0.366-0.843,0.822
		l-0.014-0.023l-3.528,2.137c-0.186-0.195-0.447-0.317-0.737-0.317c-0.281,0-0.536,0.114-0.72,0.298l-3.445-2.201
		c-0.035-0.433-0.398-0.774-0.84-0.774c-0.418,0-0.764,0.304-0.831,0.703l-3.76,2.336c-0.145-0.117-0.329-0.188-0.53-0.188
		C7.378,11.249,7,11.627,7,12.093C7,12.559,7.378,12.937,7.844,12.937z"/>
	<circle class="st1" cx="17.971" cy="6.156" r="0.844"/>
	<path class="st1" d="M28.156,17.127c-0.466,0-0.844,0.378-0.844,0.844c0,0.037,0.003,0.073,0.008,0.109l-3.482,2.109
		c-0.186-0.2-0.451-0.326-0.745-0.326c-0.336,0-0.632,0.163-0.818,0.413l-2.996-1.914c0.039-0.123,0.059-0.255,0.059-0.391
		c0-0.114-0.015-0.224-0.042-0.33l3.112-1.885c0.181,0.164,0.42,0.265,0.684,0.265c0.563,0,1.019-0.456,1.019-1.019
		c0-0.044-0.004-0.087-0.009-0.129l3.517-2.13c0.146,0.121,0.333,0.193,0.537,0.193c0.466,0,0.844-0.378,0.844-0.844
		c0-0.466-0.378-0.844-0.844-0.844c-0.466,0-0.844,0.378-0.844,0.844c0,0.007,0.001,0.013,0.001,0.019l-3.534,2.14
		c-0.181-0.166-0.422-0.268-0.687-0.268c-0.563,0-1.019,0.456-1.019,1.019c0,0.045,0.004,0.09,0.01,0.134l-3.138,1.9
		c-0.236-0.232-0.56-0.375-0.917-0.375c-0.396,0-0.75,0.176-0.99,0.453l-3.232-2.065c0.001-0.016,0.002-0.032,0.002-0.048
		c0-0.563-0.456-1.019-1.019-1.019c-0.563,0-1.019,0.456-1.019,1.019c0,0.083,0.011,0.163,0.03,0.24l-3.39,2.106
		c-0.15-0.137-0.349-0.222-0.569-0.222C7.378,17.127,7,17.505,7,17.971s0.378,0.844,0.844,0.844c0.457,0,0.828-0.364,0.843-0.817
		L8.688,18l3.503-2.176c0.168,0.123,0.376,0.197,0.6,0.197c0.291,0,0.553-0.123,0.739-0.319l3.208,2.05
		c-0.012,0.071-0.019,0.145-0.019,0.219c0,0.133,0.02,0.261,0.057,0.382l-3.053,1.849c-0.186-0.208-0.456-0.34-0.758-0.34
		c-0.563,0-1.019,0.456-1.019,1.019c0,0.049,0.005,0.096,0.011,0.143l-3.546,2.203c-0.15-0.137-0.349-0.222-0.569-0.222
		C7.378,23.005,7,23.383,7,23.849c0,0.466,0.378,0.844,0.844,0.844c0.457,0,0.828-0.363,0.843-0.817l0.001,0.002l3.601-2.237
		c0.18,0.16,0.416,0.258,0.676,0.258c0.563,0,1.019-0.456,1.019-1.019c0-0.007-0.001-0.013-0.001-0.019l3.168-1.919
		c0.232,0.21,0.54,0.338,0.878,0.338c0.334,0,0.639-0.126,0.871-0.332l3.179,2.031c0.05,0.516,0.484,0.92,1.014,0.92
		c0.563,0,1.019-0.456,1.019-1.019c0-0.014-0.002-0.027-0.002-0.04l3.579-2.168c0.134,0.089,0.295,0.142,0.468,0.142
		c0.466,0,0.844-0.378,0.844-0.844S28.622,17.127,28.156,17.127z"/>
	<path class="st1" d="M28.156,23.005c-0.46,0-0.834,0.369-0.843,0.827l-3.761,2.278c-0.132-0.086-0.29-0.136-0.459-0.136
		c-0.19,0-0.365,0.064-0.506,0.17l-3.6-2.3c0.001-0.017,0.003-0.035,0.003-0.052c0-0.563-0.456-1.019-1.019-1.019
		s-1.019,0.456-1.019,1.019c0,0.071,0.007,0.14,0.021,0.207l-3.477,2.106c-0.145-0.117-0.329-0.188-0.531-0.188
		c-0.466,0-0.844,0.378-0.844,0.844c0,0.466,0.378,0.844,0.844,0.844s0.844-0.378,0.844-0.844c0-0.011-0.001-0.021-0.002-0.032
		l0.002,0.003l3.532-2.139c0.173,0.136,0.391,0.219,0.629,0.219c0.29,0,0.551-0.122,0.736-0.316l3.544,2.265
		c-0.001,0.02-0.003,0.039-0.003,0.059c0,0.466,0.378,0.844,0.844,0.844c0.466,0,0.844-0.378,0.844-0.844
		c0-0.04-0.004-0.08-0.009-0.119l3.667-2.221c0.149,0.133,0.346,0.215,0.562,0.215c0.466,0,0.844-0.378,0.844-0.844
		C29,23.383,28.622,23.005,28.156,23.005z"/>
</g>
</svg>
