<?xml version="1.0" encoding="utf-8"?>
<!-- Generator: Adobe Illustrator 25.2.1, SVG Export Plug-In . SVG Version: 6.00 Build 0)  -->
<svg version="1.1" id="Layer_1" xmlns="http://www.w3.org/2000/svg" xmlns:xlink="http://www.w3.org/1999/xlink" x="0px" y="0px"
	 viewBox="0 0 36 36" style="enable-background:new 0 0 36 36;" xml:space="preserve">
<style type="text/css">
	.st0{fill:#F8F8F4;}
	.st1{fill-rule:evenodd;clip-rule:evenodd;fill:#8C5431;}
	.st2{fill-rule:evenodd;clip-rule:evenodd;fill:#B67C4C;}
	.st3{fill-rule:evenodd;clip-rule:evenodd;fill:#5E2417;}
</style>
<circle class="st0" cx="18" cy="18" r="18"/>
<g>
	<path id="path922" class="st1" d="M7,22.884c0.142-2.383,0.339-4.074,0.589-5.076c0.507-2.032,1.421-3.719,2.337-5.044
		c2.39-3.455,7.537-5.766,8.061-5.766c0.524,0,2.401,0.924,3.381,1.521c2.16,1.316,3.591,2.834,4.252,3.789
		c3.905,5.632,3.353,10.544,3.353,10.576c0,0.031-2.63,6.118-10.987,6.118c-4.012,0-7.407-1.621-9.828-4.203
		C7.817,24.436,7.431,23.797,7,22.884L7,22.884z"/>
	<path id="path924" class="st2" d="M21.367,8.519c0.842,0.513,1.574,1.057,2.192,1.587l0.094,0.081l0.092,0.081
		c0.104,0.092,0.208,0.186,0.309,0.281l0.084,0.079l0.041,0.04l0.082,0.079l0.08,0.078l0.078,0.078
		c0.026,0.026,0.051,0.051,0.076,0.077l0.075,0.076l0.073,0.076c0.024,0.025,0.048,0.05,0.071,0.075l0.069,0.074
		c0.034,0.037,0.067,0.074,0.1,0.11l0.064,0.072l0.063,0.071l0.061,0.07l0.059,0.069l0.057,0.068l0.055,0.067l0.027,0.033
		l0.053,0.066l0.051,0.065l0.049,0.064l0.047,0.062l0.045,0.061l0.022,0.03l0.043,0.059l0.041,0.058
		c3.163,4.562,3.402,8.651,3.379,10.058l-0.002,0.099c-0.001,0.031-0.002,0.061-0.003,0.089l-0.003,0.079l-0.002,0.036l-0.004,0.063
		l-0.005,0.075l-0.007,0.078l-0.003,0.008l-0.015,0.035l-0.028,0.06L28.9,23.044l-0.042,0.084l-0.043,0.082l-0.039,0.073
		l-0.033,0.059l-0.035,0.062l-0.038,0.065l-0.041,0.068l-0.029,0.047l-0.03,0.049l-0.047,0.075l-0.033,0.052l-0.765-0.032
		l-0.159-0.582l-0.094-0.34l-0.092-0.333l-0.121-0.433l-0.118-0.421l-0.144-0.509l-0.14-0.489l-0.136-0.47l-0.106-0.362
		l-0.078-0.263l-0.076-0.256l-0.075-0.249l-0.073-0.242l-0.048-0.158l-0.048-0.155l-0.07-0.226l-0.091-0.291l-0.067-0.21
		l-0.044-0.136l-0.064-0.198l-0.042-0.128l-0.041-0.125l-0.061-0.182l-0.059-0.175l-0.058-0.168l-0.057-0.161l-0.037-0.104
		l-0.036-0.101l-0.036-0.097l-0.035-0.094l-0.034-0.091l-0.034-0.088l-0.033-0.085l-0.027-0.068l-0.035-0.088l-0.026-0.064
		l-0.028-0.068l-0.047-0.109l-0.034-0.078l-0.036-0.081l-0.038-0.085l-0.02-0.044l-0.042-0.091l-0.044-0.094l-0.047-0.098
		l-0.024-0.05l-0.05-0.103l-0.053-0.106c-0.009-0.018-0.018-0.036-0.027-0.054l-0.056-0.111l-0.059-0.114l-0.03-0.058l-0.063-0.119
		l-0.032-0.061l-0.067-0.124l-0.069-0.127c-0.684-1.238-1.745-2.879-3.31-4.659c-0.029-0.033-0.059-0.066-0.089-0.098L20.916,9
		c-0.016-0.017-0.033-0.034-0.05-0.051l-0.052-0.052c-0.018-0.018-0.036-0.035-0.054-0.052l-0.056-0.053l-0.058-0.054
		c-0.02-0.018-0.04-0.037-0.06-0.055l-0.062-0.055l-0.064-0.056l-0.066-0.057l-0.034-0.029l-0.069-0.058l-0.071-0.059l-0.073-0.06
		l-0.075-0.06l-0.077-0.061l-0.079-0.062l-0.081-0.062l-0.083-0.063l-0.085-0.064l-0.087-0.065l-0.089-0.065l-0.091-0.066
		l-0.093-0.067l-0.095-0.068l-0.097-0.068l-0.099-0.069L18.914,7.4L18.81,7.329l-0.159-0.107L18.543,7.15l-0.055-0.037
		c0.186,0.063,0.402,0.148,0.633,0.248l0.108,0.047l0.055,0.024l0.111,0.05c0.074,0.034,0.149,0.069,0.225,0.105l0.114,0.054
		l0.114,0.056l0.115,0.056l0.114,0.057l0.114,0.058l0.113,0.058l0.112,0.058l0.111,0.058c0.037,0.02,0.073,0.039,0.109,0.058
		l0.107,0.058l0.053,0.029l0.103,0.057l0.051,0.028l0.099,0.056l0.096,0.055c0.016,0.009,0.031,0.018,0.047,0.027l0.09,0.053
		C21.311,8.485,21.339,8.502,21.367,8.519L21.367,8.519z M17.125,7.288l0.029,0.047c-2.541,1.976-4.352,3.968-5.434,5.975
		c-0.573,1.064-1.161,2.539-1.763,4.426l-0.068,0.215l-0.034,0.109l-0.068,0.221l-0.034,0.112L9.683,18.62l-0.069,0.229
		c-0.012,0.039-0.023,0.077-0.034,0.116L9.511,19.2c-0.023,0.079-0.046,0.158-0.069,0.238L9.373,19.68l-0.035,0.122l-0.069,0.247
		L9.199,20.3c-0.023,0.084-0.046,0.169-0.07,0.254l-0.07,0.258c-0.012,0.043-0.023,0.087-0.035,0.13l-0.07,0.263l-0.07,0.266
		l-0.07,0.27c-0.023,0.09-0.047,0.182-0.07,0.273l-0.07,0.277l-0.071,0.28l-0.071,0.284l-0.071,0.288l-0.035,0.145l-0.071,0.293
		L8.32,23.728l-0.004-0.001l-0.009-0.003c-0.003-0.002-0.007-0.003-0.01-0.005l-0.011-0.006c-0.002-0.001-0.004-0.003-0.006-0.004
		L8.268,23.7l-0.014-0.01l-0.016-0.012l-0.026-0.021L8.192,23.64l-0.031-0.027l-0.046-0.041l-0.038-0.035l-0.041-0.039l-0.075-0.073
		l-0.049-0.048l-0.088-0.088L7.77,23.231l-0.101-0.104L7.56,23.013l-0.093-0.098l-0.124-0.132l-0.145-0.157l-0.127-0.137
		c-0.014-0.016-0.029-0.032-0.044-0.048l0.023-0.345l0.019-0.268l0.02-0.262l0.02-0.255l0.016-0.186l0.011-0.122l0.016-0.18
		l0.022-0.234l0.017-0.171l0.017-0.167l0.017-0.163l0.018-0.159l0.018-0.156l0.012-0.102l0.025-0.198l0.019-0.144l0.013-0.094
		l0.019-0.138l0.013-0.09l0.02-0.131l0.02-0.127l0.014-0.083l0.014-0.081l0.014-0.079l0.014-0.078l0.014-0.076l0.014-0.074
		l0.022-0.108l0.015-0.07l0.015-0.068l0.015-0.066l0.015-0.065l0.015-0.063l0.008-0.031c0.41-1.642,1.085-3.059,1.813-4.242
		l0.074-0.119c0.012-0.02,0.025-0.039,0.037-0.059l0.075-0.117l0.075-0.115c0.037-0.057,0.075-0.114,0.113-0.17l0.075-0.111
		c0.025-0.037,0.05-0.073,0.075-0.11c1.571-2.271,4.332-4.048,6.19-4.999l0.133-0.067l0.129-0.064
		c0.195-0.096,0.392-0.189,0.591-0.278l0.106-0.046C17.091,7.302,17.108,7.295,17.125,7.288L17.125,7.288z"/>
	<path id="path926" class="st2" d="M9.346,24.576c1.028-4.296,1.951-7.337,2.771-9.122c0.82-1.785,2.245-3.793,4.276-6.025
		c-0.908,3.141-1.511,5.65-1.807,7.524s-0.578,4.948-0.844,9.22c-1.083-0.199-1.88-0.395-2.393-0.587
		C10.836,25.394,10.169,25.057,9.346,24.576L9.346,24.576z M14.989,26.448c0.398-5.172,0.776-8.812,1.136-10.921
		c0.36-2.109,0.98-4.322,1.861-6.638c0.912,2.087,1.541,4.147,1.886,6.177c0.345,2.031,0.738,5.988,1.18,11.873
		c-1.961,0.076-3.409,0.076-4.344,0C15.775,26.864,15.202,26.7,14.989,26.448L14.989,26.448z M22.214,26.439
		c-0.432-5.021-0.819-8.649-1.161-10.886c-0.343-2.236-0.824-4.278-1.444-6.125c1.821,1.691,3.135,3.414,3.943,5.17
		c0.808,1.756,1.864,5.184,3.167,10.284c-0.769,0.52-1.428,0.875-1.975,1.064C24.196,26.136,23.353,26.3,22.214,26.439
		L22.214,26.439z"/>
	<path id="path928" class="st3" d="M28.973,22.884l-0.001,0.003l-0.006,0.016l-0.013,0.03l-0.02,0.043
		c-0.357,0.762-3.175,6.027-10.947,6.027c-4.012,0-7.407-1.621-9.828-4.203c-0.093-0.099-0.189-0.219-0.289-0.359l-0.04-0.057
		l-0.04-0.059c-0.028-0.041-0.055-0.083-0.082-0.125l-0.041-0.066l-0.042-0.068L7.602,24.03L7.56,23.959l-0.043-0.073L7.474,23.81
		l-0.043-0.078l-0.022-0.04l-0.044-0.081c-0.007-0.014-0.015-0.028-0.022-0.041l-0.044-0.084l-0.022-0.043l-0.045-0.088l-0.045-0.09
		L7.14,23.173l-0.023-0.047L7.07,23.031l-0.047-0.098L7,22.884c0.008-0.133,0.016-0.263,0.024-0.391
		c2.385,2.482,6.405,4.112,10.962,4.112c4.588,0,8.632-1.652,11.011-4.162l-0.003,0.094l-0.003,0.083l-0.006,0.104l-0.005,0.068
		L28.973,22.884L28.973,22.884z"/>
</g>
</svg>
