<?xml version="1.0" encoding="utf-8"?>
<!-- Generator: Adobe Illustrator 25.2.1, SVG Export Plug-In . SVG Version: 6.00 Build 0)  -->
<svg version="1.1" id="Layer_1" xmlns="http://www.w3.org/2000/svg" xmlns:xlink="http://www.w3.org/1999/xlink" x="0px" y="0px"
	 viewBox="0 0 36 36" style="enable-background:new 0 0 36 36;" xml:space="preserve">
<style type="text/css">
	.st0{fill:#FFFFFF;}
	.st1{fill:#48A3FF;}
</style>
<path class="st0" d="M18,36c9.941,0,18-8.059,18-18S27.941,0,18,0S0,8.059,0,18S8.059,36,18,36z"/>
<g>
	<path id="路径_4_" class="st1" d="M9.367,9.865L9.367,9.865L6,6.496v11.506l0,0c0.003,4.651,2.804,8.844,7.098,10.623
		s9.237,0.797,12.525-2.491L9.367,9.865z"/>
	<path id="路径_5_" class="st1" d="M26.633,26.135L26.633,26.135L30,29.504V18.002l0,0c-0.001-4.652-2.802-8.846-7.096-10.627
		s-9.238-0.798-12.527,2.49L26.633,26.135z"/>
</g>
</svg>
