<?xml version="1.0" encoding="utf-8"?>
<!-- Generator: Adobe Illustrator 25.2.1, SVG Export Plug-In . SVG Version: 6.00 Build 0)  -->
<svg version="1.1" id="Layer_1" xmlns="http://www.w3.org/2000/svg" xmlns:xlink="http://www.w3.org/1999/xlink" x="0px" y="0px"
	 viewBox="0 0 36 36" style="enable-background:new 0 0 36 36;" xml:space="preserve">
<style type="text/css">
	.st0{fill:#FF6666;}
	.st1{fill:#D95E59;}
	.st2{fill:#F5F7E2;}
	.st3{fill-rule:evenodd;clip-rule:evenodd;fill:#F5F7E2;}
	.st4{fill:#F7931A;}
	.st5{fill:#FFFFFF;}
</style>
<g>
	<path class="st0" d="M36,18c0,4.878-1.944,9.324-5.112,12.564l-0.432,0.432C27.216,34.092,22.842,36,18,36
		s-9.216-1.908-12.456-5.004l-0.018-0.018c-0.144-0.144-0.288-0.27-0.414-0.414C1.944,27.324,0,22.878,0,18C0,8.064,8.064,0,18,0
		c5.094,0,9.702,2.124,12.978,5.526C34.092,8.766,36,13.158,36,18z"/>
	<path class="st1" d="M36,18c0,4.878-1.944,9.324-5.112,12.564l-0.432,0.432C27.216,34.092,22.842,36,18,36
		s-9.216-1.908-12.456-5.004l-0.018-0.018L30.978,5.526C34.092,8.766,36,13.158,36,18z"/>
	<path class="st2" d="M18,29.538c6.352,0,11.502-5.166,11.502-11.538c0-6.372-5.15-11.538-11.502-11.538
		C11.648,6.462,6.498,11.628,6.498,18C6.498,24.372,11.648,29.538,18,29.538z"/>
	<path class="st3" d="M30.456,30.996C27.216,34.092,22.842,36,18,36s-9.216-1.908-12.456-5.004c3.132-3.276,7.56-5.328,12.456-5.328
		S27.324,27.72,30.456,30.996z"/>
	<path class="st4" d="M18,27.828c5.428,0,9.828-4.4,9.828-9.828S23.428,8.172,18,8.172S8.172,12.572,8.172,18
		S12.572,27.828,18,27.828z"/>
	<path class="st5" d="M20.556,16.758c-0.306,1.224-2.178,0.594-2.79,0.45l0.54-2.16C18.9,15.21,20.862,15.48,20.556,16.758z
		 M20.214,20.232c-0.342,1.332-2.592,0.612-3.33,0.432l0.594-2.376C18.216,18.486,20.574,18.846,20.214,20.232z M22.68,16.776
		c0.198-1.314-0.81-2.016-2.16-2.484l0.45-1.764l-1.08-0.27l-0.432,1.728c-0.288-0.072-0.576-0.144-0.864-0.198l0.432-1.746
		l-1.08-0.27l-0.45,1.764c-0.234-0.054-0.468-0.108-0.684-0.162l-1.494-0.378l-0.288,1.152c0,0,0.81,0.18,0.792,0.198
		c0.432,0.108,0.522,0.396,0.504,0.63l-0.504,2.016c0.036,0,0.072,0.018,0.108,0.036c-0.036,0-0.072-0.018-0.108-0.036l-0.702,2.826
		c-0.054,0.126-0.198,0.324-0.486,0.252c0.018,0.018-0.792-0.198-0.792-0.198l-0.54,1.242l1.404,0.342
		c0.27,0.072,0.522,0.126,0.774,0.198l-0.45,1.8l1.08,0.27l0.45-1.782c0.288,0.072,0.576,0.162,0.864,0.216l-0.45,1.764l1.08,0.27
		l0.45-1.782c1.836,0.342,3.222,0.216,3.816-1.458c0.468-1.332-0.018-2.106-0.99-2.61C22.014,18.198,22.536,17.73,22.68,16.776z"/>
</g>
</svg>
