<?xml version="1.0" encoding="utf-8"?>
<!-- Generator: Adobe Illustrator 25.2.3, SVG Export Plug-In . SVG Version: 6.00 Build 0)  -->
<svg version="1.1" id="Layer_1" xmlns="http://www.w3.org/2000/svg" xmlns:xlink="http://www.w3.org/1999/xlink" x="0px" y="0px"
	 viewBox="0 0 36 36" style="enable-background:new 0 0 36 36;" xml:space="preserve">
<style type="text/css">
	.st0{fill:#FF6666;}
	.st1{fill:#D95E59;}
	.st2{fill:#FFF4C7;}
	.st3{fill:#016273;}
	.st4{fill:#FFFFFF;}
</style>
<g>
	<path class="st0" d="M5.272,5.272c-7.029,7.029-7.029,18.426,0,25.455L30.729,5.272C23.699-1.757,12.302-1.757,5.272,5.272z
		 M14.819,11.636c-1.757-1.757-1.757-4.607,0-6.364c1.757-1.757,4.607-1.757,6.364,0c1.757,1.757,1.757,4.607,0,6.364
		C19.425,13.393,16.576,13.393,14.819,11.636z"/>
	<path class="st1" d="M30.727,30.728c-7.028-7.03-18.425-7.03-25.455,0L30.727,5.271C37.758,12.301,37.758,23.698,30.727,30.728z"/>
	<path class="st2" d="M30.727,30.728c-7.028,7.03-18.425,7.03-25.455,0C12.302,23.698,23.7,23.698,30.727,30.728z"/>
	<path class="st3" d="M16.409,6.863c-0.879,0.879-0.879,2.303,0,3.182c0.879,0.879,2.303,0.879,3.182,0
		c0.879-0.879,0.879-2.303,0-3.182C18.713,5.984,17.288,5.984,16.409,6.863z"/>
	<path class="st4" d="M16.858,12.75c-0.704-0.194-1.517-0.687-2.041-1.236c-1.925-2.018-1.584-5.216,0.72-6.745
		c2.238-1.486,5.232-0.685,6.419,1.717c1.249,2.527-0.049,5.435-2.79,6.248C18.579,12.909,17.461,12.916,16.858,12.75z
		 M18.696,10.629c1.379-0.41,2.011-2.147,1.236-3.4c-0.579-0.937-1.818-1.307-2.866-0.856c-1.406,0.605-1.805,2.446-0.775,3.585
		C16.955,10.694,17.739,10.913,18.696,10.629z"/>
</g>
</svg>
