<?xml version="1.0" encoding="utf-8"?>
<!-- Generator: Adobe Illustrator 25.2.1, SVG Export Plug-In . SVG Version: 6.00 Build 0)  -->
<svg version="1.1" id="Layer_1" xmlns="http://www.w3.org/2000/svg" xmlns:xlink="http://www.w3.org/1999/xlink" x="0px" y="0px"
	 viewBox="0 0 36 36" style="enable-background:new 0 0 36 36;" xml:space="preserve">
<style type="text/css">
	.st0{fill:url(#SVGID_1_);}
	.st1{fill:#FFFFFF;}
</style>
<g>
	
		<linearGradient id="SVGID_1_" gradientUnits="userSpaceOnUse" x1="18" y1="2" x2="18" y2="38" gradientTransform="matrix(1 0 0 -1 0 38)">
		<stop  offset="0" style="stop-color:#9E00F6"/>
		<stop  offset="1" style="stop-color:#EB627B"/>
	</linearGradient>
	<path class="st0" d="M18,0c9.941,0,18,8.059,18,18s-8.059,18-18,18S0,27.941,0,18S8.059,0,18,0z"/>
	<path class="st1" d="M16.754,18.016c-0.059,0-0.117-0.005-0.175-0.014l0.73-1.561l0.612-1.415l0.423-1.138
		c0.107-0.331,0.161-0.588,0.161-0.773c0-0.185-0.029-0.336-0.087-0.452c-0.058-0.126-0.127-0.219-0.204-0.277
		c-0.074-0.066-0.165-0.112-0.262-0.131c-0.097-0.029-0.18-0.044-0.248-0.044c-0.253,0-0.54,0.146-0.86,0.438
		c-0.311,0.282-0.647,0.661-1.007,1.138l-1.094,1.648l-1.109,1.911L9.33,25.221c-0.108,0.208-0.192,0.428-0.248,0.656
		c-0.058,0.233-0.088,0.462-0.088,0.686c0.001,0.167,0.021,0.333,0.058,0.496c0.048,0.175,0.126,0.336,0.233,0.481
		c0.107,0.146,0.258,0.267,0.452,0.365c0.194,0.097,0.447,0.146,0.758,0.146c0.379,0,0.73-0.136,1.05-0.408
		c0.321-0.272,0.622-0.627,0.905-1.065c0.282-0.447,0.54-0.948,0.773-1.502l0.671-1.706l0.598-1.663l0.54-1.415
		c0.311,1.011,0.666,1.974,1.065,2.888c0.398,0.905,0.841,1.697,1.327,2.378c0.486,0.681,1.026,1.22,1.619,1.619
		c0.593,0.399,1.24,0.598,1.94,0.598c0.856,0,1.76-0.214,2.713-0.642c0.963-0.438,1.945-1.128,2.947-2.071
		c0.34-0.321,0.578-0.627,0.715-0.919c0.146-0.301,0.219-0.564,0.219-0.787c0-0.233-0.068-0.418-0.204-0.554
		c-0.13-0.134-0.309-0.208-0.496-0.204c-0.311,0-0.618,0.17-0.919,0.511c-0.322,0.429-0.705,0.807-1.138,1.123
		c-0.37,0.282-0.831,0.54-1.385,0.773s-1.186,0.35-1.896,0.35h-0.204c-0.073,0-0.146-0.005-0.219-0.014
		c-0.389-0.029-0.758-0.224-1.109-0.583c-0.35-0.36-0.671-0.792-0.963-1.298c-0.282-0.516-0.525-1.055-0.729-1.619
		c-0.194-0.574-0.336-1.089-0.423-1.546c0.622-0.107,1.264-0.282,1.925-0.525c0.671-0.243,1.322-0.54,1.954-0.89
		c0.627-0.346,1.222-0.747,1.78-1.196c0.564-0.457,1.055-0.953,1.473-1.488c0.41-0.53,0.743-1.114,0.992-1.736
		c0.252-0.621,0.381-1.285,0.379-1.955c0-1.011-0.209-1.896-0.627-2.654c-0.4-0.749-0.969-1.393-1.663-1.882
		c-0.7-0.506-1.507-0.885-2.421-1.138c-0.905-0.253-1.853-0.379-2.844-0.379c-1.011,0-1.969,0.107-2.873,0.321
		c-0.905,0.204-1.741,0.481-2.509,0.831c-0.758,0.34-1.444,0.739-2.057,1.196c-0.613,0.447-1.133,0.914-1.561,1.4
		c-0.418,0.486-0.744,0.972-0.977,1.459c-0.223,0.486-0.336,0.938-0.336,1.356c0,0.447,0.122,0.797,0.365,1.05
		c0.243,0.243,0.608,0.365,1.094,0.365c0.36,0,0.661-0.083,0.905-0.248c0.243-0.165,0.462-0.379,0.656-0.642
		c0.204-0.262,0.398-0.564,0.583-0.904l0.613-1.05c0.233-0.36,0.506-0.71,0.817-1.05c0.321-0.341,0.71-0.642,1.167-0.905
		c0.467-0.262,1.016-0.476,1.649-0.642c0.642-0.166,1.405-0.248,2.29-0.248c0.787,0,1.464,0.092,2.028,0.277
		c0.574,0.185,1.04,0.433,1.4,0.744c0.37,0.311,0.637,0.676,0.802,1.094c0.175,0.418,0.263,0.861,0.263,1.327
		c0,0.652-0.166,1.322-0.496,2.013c-0.321,0.691-0.763,1.318-1.327,1.882c-0.564,0.564-1.225,1.031-1.984,1.4
		c-0.749,0.36-1.546,0.54-2.392,0.54L16.754,18.016L16.754,18.016z"/>
</g>
</svg>
