<?xml version="1.0" encoding="utf-8"?>
<!-- Generator: Adobe Illustrator 25.2.1, SVG Export Plug-In . SVG Version: 6.00 Build 0)  -->
<svg version="1.1" id="Layer_1" xmlns="http://www.w3.org/2000/svg" xmlns:xlink="http://www.w3.org/1999/xlink" x="0px" y="0px"
	 viewBox="0 0 36 36" style="enable-background:new 0 0 36 36;" xml:space="preserve">
<style type="text/css">
	.st0{fill:#FFFFFF;}
	.st1{fill-rule:evenodd;clip-rule:evenodd;}
</style>
<g>
	<circle class="st0" cx="18" cy="18" r="18"/>
	<path class="st1" d="M17.999,16h3.155v2.948h-3.155v12.114l-0.829-0.311c-0.38-0.138-1.002-0.38-1.762-0.726l-0.357-0.161V6.592
		l3.144-0.967l2.971,0.91v3.19l-2.971-0.921l-0.196,0.058V16z M11.182,18.949H7.163V9.045l6.967-2.153v3.167l-4.019,1.244v4.698
		h4.007v13.623l-0.887-0.461c-2.764-1.428-6.069-3.835-6.069-7.186V20.4h2.948v1.578c0,0.691,0.357,1.428,1.071,2.176V18.949z
		 M22.053,6.823v18.678c2.004-1.025,2.948-2.257,2.948-2.257v-4.295h4.192V9.022L22.053,6.823z M26.244,16.001h-1.244v-5.101
		l1.244,0.38V16.001z M19.289,27.85c3.466-1.301,6.955-3.558,6.955-5.666v-1.796h2.948v1.796c0,5.009-7.266,7.888-9.489,8.648
		l-0.806,0.276V28L19.289,27.85z"/>
</g>
</svg>
