<?xml version="1.0" encoding="utf-8"?>
<!-- Generator: Adobe Illustrator 25.2.1, SVG Export Plug-In . SVG Version: 6.00 Build 0)  -->
<svg version="1.1" id="Layer_1" xmlns="http://www.w3.org/2000/svg" xmlns:xlink="http://www.w3.org/1999/xlink" x="0px" y="0px"
	 viewBox="0 0 36 36" style="enable-background:new 0 0 36 36;" xml:space="preserve">
<style type="text/css">
	.st0{fill:#EDEFF0;}
	.st1{fill:url(#SVGID_1_);}
	.st2{fill:url(#SVGID_2_);}
</style>
<g>
	<g>
		<circle class="st0" cx="18" cy="18" r="18"/>
	</g>
</g>
<g>
	<linearGradient id="SVGID_1_" gradientUnits="userSpaceOnUse" x1="3" y1="20" x2="16.4273" y2="20">
		<stop  offset="0" style="stop-color:#F902F8"/>
		<stop  offset="1" style="stop-color:#8D2E94"/>
	</linearGradient>
	<path class="st1" d="M3.337,12.744c2.435,2.783,4.876,5.559,7.296,8.354c0.285,0.329,0.564,0.473,0.995,0.444
		c0.563-0.038,1.13-0.009,1.725-0.009c0,0.816-0.015,1.569,0.01,2.319c0.007,0.2,0.091,0.435,0.22,0.586
		c0.847,1,1.715,1.982,2.578,2.969c0.068,0.077,0.15,0.142,0.261,0.246c0-3.102,0-6.145,0-9.221c-1.243,0-2.455,0.012-3.667-0.012
		c-0.204-0.004-0.459-0.116-0.597-0.265c-0.701-0.757-1.372-1.543-2.053-2.319c-0.106-0.121-0.207-0.246-0.377-0.447
		c2.299,0,4.493,0,6.699,0c0-1.043,0-2.038,0-3.041c-4.47,0-8.913,0-13.427,0C3.142,12.514,3.238,12.631,3.337,12.744z"/>
	<linearGradient id="SVGID_2_" gradientUnits="userSpaceOnUse" x1="19.5803" y1="19.978" x2="33" y2="19.978">
		<stop  offset="0" style="stop-color:#7D47A8"/>
		<stop  offset="1" style="stop-color:#449FED"/>
	</linearGradient>
	<path class="st2" d="M19.58,12.353c0,5.108,0,10.179,0,15.25c0.127-0.033,0.177-0.114,0.239-0.185
		c0.854-0.978,1.718-1.946,2.555-2.937c0.145-0.172,0.243-0.436,0.252-0.661c0.031-0.748,0.012-1.498,0.012-2.287
		c0.707,0,1.361,0.009,2.014-0.007c0.151-0.004,0.348-0.051,0.441-0.154c0.839-0.932,1.66-1.88,2.575-2.925
		c-1.751,0-3.376,0-4.992,0c0-1.043,0-2.039,0-3.058c0.189,0,0.341,0,0.493,0c2.262,0,4.523,0.003,6.785-0.006
		c0.167-0.001,0.394-0.026,0.491-0.133c0.851-0.938,1.679-1.898,2.555-2.898C28.479,12.353,24.026,12.353,19.58,12.353z"/>
</g>
</svg>
