<?xml version="1.0" encoding="utf-8"?>
<!-- Generator: Adobe Illustrator 25.2.1, SVG Export Plug-In . SVG Version: 6.00 Build 0)  -->
<svg version="1.1" id="Layer_1" xmlns="http://www.w3.org/2000/svg" xmlns:xlink="http://www.w3.org/1999/xlink" x="0px" y="0px"
	 viewBox="0 0 36 36" style="enable-background:new 0 0 36 36;" xml:space="preserve">
<style type="text/css">
	.st0{fill:url(#SVGID_1_);}
	.st1{fill:url(#SVGID_2_);stroke:#FFFFFF;stroke-miterlimit:10;}
	.st2{fill:url(#SVGID_3_);}
	.st3{fill:#0E0F23;}
	.st4{fill-rule:evenodd;clip-rule:evenodd;fill:#FFFFFF;}
	.st5{fill:#FFFFFF;}
</style>
<linearGradient id="SVGID_1_" gradientUnits="userSpaceOnUse" x1="11.5335" y1="227.9361" x2="28.4566" y2="207.1669" gradientTransform="matrix(1 0 0 1 0 -202)">
	<stop  offset="0" style="stop-color:#1A1F4F"/>
	<stop  offset="1" style="stop-color:#120D29"/>
</linearGradient>
<path class="st0" d="M18,36c9.941,0,18-8.059,18-18S27.941,0,18,0S0,8.059,0,18S8.059,36,18,36z"/>
<linearGradient id="SVGID_2_" gradientUnits="userSpaceOnUse" x1="12.8994" y1="202.4722" x2="17.5329" y2="218.3827" gradientTransform="matrix(1 0 0 1 0 -202)">
	<stop  offset="0" style="stop-color:#03B8FF"/>
	<stop  offset="1" style="stop-color:#FA52A0"/>
</linearGradient>
<path class="st1" d="M22.642,10.521C17.967,6.93,13.017,6.033,11.55,8.327l-4.184,6.707l0,0c-1.311,2.424,1.327,6.917,5.926,10.449
	c4.629,3.555,9.521,4.465,11.042,2.257l0,0l4.267-6.745C29.975,18.7,27.409,13.912,22.642,10.521z"/>
<linearGradient id="SVGID_3_" gradientUnits="userSpaceOnUse" x1="12.8994" y1="202.472" x2="17.5329" y2="218.3825" gradientTransform="matrix(1 0 0 1 0 -202)">
	<stop  offset="0" style="stop-color:#03B8FF"/>
	<stop  offset="1" style="stop-color:#FA52A0"/>
</linearGradient>
<path class="st2" d="M22.642,10.521C17.967,6.93,13.017,6.033,11.55,8.327l-4.184,6.707l0,0c-1.311,2.424,1.327,6.917,5.926,10.449
	c4.629,3.555,9.521,4.465,11.042,2.257l0,0l4.267-6.745C29.975,18.7,27.409,13.912,22.642,10.521z"/>
<path id="path903" class="st3" d="M28.635,20.989L28.635,20.989l-4.213,6.785l0,0c-1.463,2.297-6.42,1.296-11.088-2.192
	c-0.92-0.696-1.743-1.401-2.566-2.192c0.639-0.095,1.463-0.496,2.295-1.496c1.463-1.696,2.198-2.096,2.838-1.992
	c0.639,0,1.375,0.696,2.566,2.392c1.191,1.696,2.838,2.192,3.854,1.296c0.088-0.095,0.184-0.095,0.271-0.2
	c0.823-0.696,1.104-1.001,2.662-4.193c0.368-0.8,1.647-2.096,3.389-1.496C29.091,18.997,29.091,20.093,28.635,20.989L28.635,20.989z
	"/>
<path id="path905" class="st4" d="M27.987,20.589c-1.287,1.992-5.772,1.001-10.08-2.297c-4.397-3.288-6.963-7.481-5.684-9.472
	c1.287-1.992,5.772-1.001,10.08,2.297S29.187,18.597,27.987,20.589L27.987,20.589z M23.959,17.597
	c-0.639,1.001-2.838,0.496-5.045-1.096c-2.111-1.591-3.389-3.688-2.75-4.688c0.639-1.001,2.838-0.496,5.045,1.096
	C23.319,14.509,24.598,16.606,23.959,17.597z"/>
<path id="path907" class="st5" d="M11.216,10.621c0-0.095-0.088-0.2-0.184-0.095c-0.088,0.095-0.184,0.095-0.184,0.2
	c0.088,0.295,0.184,0.496,0.184,0.696c0,0.095,0.088,0.2,0.184,0.095c0.088,0,0.184-0.095,0.088-0.2
	C11.312,11.117,11.312,10.917,11.216,10.621z"/>
<path id="path909" class="st5" d="M11.671,12.213c0-0.095-0.088-0.2-0.184-0.095c-0.088,0.095-0.088,0.095-0.088,0.2
	c1.007,2.497,3.118,5.184,5.868,7.185c0.088,0.095,0.184,0,0.271,0c0.088-0.095,0-0.2,0-0.295
	C14.701,17.206,12.687,14.604,11.671,12.213z"/>
<path id="path911" class="st5" d="M22.768,21.99c-0.088,0-0.184,0-0.184,0.095s0,0.2,0.088,0.2c0.271,0.095,0.639,0.2,0.92,0.295
	c0.088,0,0.184,0,0.184-0.095s0-0.2-0.088-0.2C23.407,22.19,23.039,22.085,22.768,21.99z"/>
<path id="path913" class="st5" d="M24.414,22.39c-0.088,0-0.184,0.095-0.184,0.2c0,0.095,0.088,0.2,0.184,0.2
	c0.736,0.095,1.559,0.2,2.198,0.095c0.088,0,0.184-0.095,0.184-0.2c0-0.095-0.088-0.2-0.184-0.2
	C25.885,22.59,25.15,22.485,24.414,22.39z"/>
</svg>
