<?xml version="1.0" encoding="utf-8"?>
<!-- Generator: Adobe Illustrator 25.2.1, SVG Export Plug-In . SVG Version: 6.00 Build 0)  -->
<svg version="1.1" id="Layer_1" xmlns="http://www.w3.org/2000/svg" xmlns:xlink="http://www.w3.org/1999/xlink" x="0px" y="0px"
	 viewBox="0 0 36 36" style="enable-background:new 0 0 36 36;" xml:space="preserve">
<style type="text/css">
	.st0{fill:url(#SVGID_1_);}
	.st1{fill:url(#SVGID_2_);}
</style>
<linearGradient id="SVGID_1_" gradientUnits="userSpaceOnUse" x1="18" y1="202" x2="18" y2="238" gradientTransform="matrix(1 0 0 1 0 -202)">
	<stop  offset="0" style="stop-color:#1D173A"/>
	<stop  offset="1" style="stop-color:#102176"/>
</linearGradient>
<path class="st0" d="M18,36c9.941,0,18-8.059,18-18S27.941,0,18,0S0,8.059,0,18S8.059,36,18,36z"/>
<g>
	
		<linearGradient id="SVGID_2_" gradientUnits="userSpaceOnUse" x1="11.2375" y1="215.5144" x2="11.2375" y2="237.0194" gradientTransform="matrix(1 0 0 1 0 -202)">
		<stop  offset="0" style="stop-color:#36DBFD"/>
		<stop  offset="1" style="stop-color:#0085FF"/>
	</linearGradient>
	<path class="st1" d="M12.057,35.019C5.311,32.672,0.391,26.423,0,18.975c4.991-3.454,11.051-5.459,17.508-5.459
		c0.122,0,0.245,0.001,0.368,0.002c0.008,0,0.017-0.001,0.026-0.001c0.039-0.001,0.077-0.003,0.116-0.003
		c2.462,0,4.457,1.965,4.457,4.389c0,1.212-0.499,2.309-1.304,3.105c-0.133,0.124-0.227,0.208-0.325,0.288
		C16.77,24.923,13.677,29.633,12.057,35.019z"/>
</g>
</svg>
