<?xml version="1.0" encoding="utf-8"?>
<!-- Generator: Adobe Illustrator 25.2.3, SVG Export Plug-In . SVG Version: 6.00 Build 0)  -->
<svg version="1.1" id="Layer_1" xmlns="http://www.w3.org/2000/svg" xmlns:xlink="http://www.w3.org/1999/xlink" x="0px" y="0px"
	 viewBox="0 0 36 36" style="enable-background:new 0 0 36 36;" xml:space="preserve">
<style type="text/css">
	.st0{fill:#E3F0F2;}
	.st1{fill:#41A39F;}
</style>
<ellipse class="st0" cx="18" cy="18" rx="18" ry="18"/>
<g>
	<path class="st1" d="M17.436,26.549c0.003-0.869,0.711-1.575,1.579-1.577c0.87-0.001,1.584,0.717,1.582,1.591
		c-0.002,0.865-0.715,1.576-1.581,1.576C18.142,28.139,17.433,27.426,17.436,26.549z"/>
	<path class="st1" d="M10.816,16.157c-0.878,0.002-1.577-0.692-1.58-1.57c-0.003-0.881,0.701-1.589,1.58-1.588
		c0.869,0.001,1.577,0.711,1.577,1.581C12.393,15.453,11.691,16.155,10.816,16.157z"/>
	<path class="st1" d="M25.206,15.124c-0.872-0.002-1.572-0.705-1.572-1.577c0-0.877,0.711-1.587,1.585-1.583
		c0.865,0.003,1.581,0.722,1.575,1.582C26.789,14.426,26.085,15.126,25.206,15.124z"/>
	<path class="st1" d="M13.584,13.252c0.012-0.627,0.525-1.124,1.147-1.112c0.619,0.012,1.117,0.535,1.101,1.159
		c-0.015,0.614-0.537,1.114-1.148,1.099C14.068,14.382,13.572,13.866,13.584,13.252z"/>
	<path class="st1" d="M23.833,10.82c-0.626-0.003-1.12-0.508-1.115-1.139c0.005-0.619,0.509-1.114,1.13-1.11
		c0.622,0.003,1.115,0.501,1.114,1.125C24.962,10.327,24.463,10.823,23.833,10.82z"/>
	<path class="st1" d="M15.902,22.737c0.619-0.005,1.122,0.488,1.132,1.111c0.01,0.622-0.495,1.136-1.119,1.139
		c-0.623,0.003-1.133-0.503-1.133-1.126C14.783,23.242,15.28,22.742,15.902,22.737z"/>
	<path class="st1" d="M21.913,27.283c-0.002-0.628,0.5-1.134,1.124-1.132c0.621,0.002,1.117,0.499,1.12,1.121
		c0.003,0.628-0.499,1.133-1.124,1.132C22.415,28.404,21.915,27.904,21.913,27.283z"/>
	<path class="st1" d="M9.275,17.682c0.001,0.622-0.493,1.118-1.116,1.123c-0.627,0.005-1.13-0.496-1.13-1.124
		c0-0.627,0.503-1.127,1.131-1.124C8.78,16.56,9.274,17.059,9.275,17.682z"/>
	<path class="st1" d="M25.538,17.578c0.001,0.627-0.489,1.127-1.108,1.129c-0.629,0.002-1.134-0.496-1.135-1.12
		c-0.001-0.63,0.497-1.129,1.126-1.127C25.047,16.462,25.537,16.952,25.538,17.578z"/>
	<path class="st1" d="M26.177,26.953c-0.454-0.009-0.819-0.384-0.808-0.831c0.011-0.453,0.383-0.815,0.832-0.809
		c0.451,0.006,0.819,0.379,0.815,0.826C27.011,26.597,26.636,26.962,26.177,26.953z"/>
	<path class="st1" d="M18.689,13.886c0,0.45-0.368,0.821-0.818,0.823c-0.444,0.003-0.822-0.371-0.827-0.817
		c-0.005-0.45,0.377-0.834,0.828-0.831C18.32,13.064,18.688,13.436,18.689,13.886z"/>
	<path class="st1" d="M14.842,21.643c-0.453,0.002-0.82-0.362-0.823-0.815c-0.003-0.453,0.361-0.825,0.81-0.829
		c0.456-0.004,0.833,0.37,0.833,0.824C15.662,21.274,15.294,21.642,14.842,21.643z"/>
	<path class="st1" d="M8.356,20.993c-0.003,0.453-0.37,0.814-0.824,0.812c-0.451-0.002-0.819-0.371-0.819-0.821
		c0-0.458,0.371-0.821,0.835-0.817C8.002,20.17,8.359,20.536,8.356,20.993z"/>
	<path class="st1" d="M22.1,7.528c-0.003,0.452-0.372,0.82-0.821,0.818c-0.452-0.001-0.83-0.384-0.823-0.835
		c0.007-0.451,0.379-0.812,0.832-0.807C21.745,6.709,22.103,7.073,22.1,7.528z"/>
	<path class="st1" d="M23.132,20.022c-0.001,0.455-0.363,0.821-0.815,0.822c-0.451,0.001-0.821-0.365-0.824-0.816
		c-0.004-0.454,0.373-0.832,0.826-0.83C22.769,19.199,23.133,19.568,23.132,20.022z"/>
	<path class="st1" d="M20.614,15.379c0.001,0.324-0.267,0.594-0.591,0.595c-0.32,0.001-0.595-0.273-0.596-0.593
		c-0.001-0.321,0.269-0.59,0.594-0.592C20.346,14.787,20.613,15.053,20.614,15.379z"/>
	<path class="st1" d="M15.027,18.796c-0.327-0.002-0.592-0.272-0.587-0.596c0.006-0.327,0.274-0.588,0.6-0.585
		c0.325,0.003,0.589,0.273,0.584,0.598C15.62,18.543,15.357,18.799,15.027,18.796z"/>
	<path class="st1" d="M27.529,24.282c0.01-0.326,0.289-0.591,0.607-0.577c0.324,0.014,0.587,0.293,0.577,0.612
		c-0.01,0.321-0.295,0.589-0.611,0.576C27.773,24.879,27.519,24.608,27.529,24.282z"/>
	<path class="st1" d="M18.732,7.35c-0.327,0-0.595-0.266-0.593-0.59c0.001-0.324,0.271-0.592,0.594-0.592
		c0.325,0,0.591,0.266,0.591,0.592C19.324,7.089,19.061,7.351,18.732,7.35z"/>
	<path class="st1" d="M19.362,21.148c0.001-0.332,0.26-0.587,0.592-0.585c0.331,0.002,0.588,0.262,0.586,0.593
		c-0.002,0.325-0.271,0.593-0.594,0.59C19.62,21.743,19.361,21.477,19.362,21.148z"/>
	<path class="st1" d="M8.728,23.575c0.001,0.333-0.255,0.59-0.587,0.59c-0.33,0-0.592-0.26-0.592-0.589
		c0-0.324,0.267-0.593,0.591-0.594C8.466,22.982,8.727,23.244,8.728,23.575z"/>
</g>
</svg>
