<?xml version="1.0" encoding="utf-8"?>
<!-- Generator: Adobe Illustrator 25.2.1, SVG Export Plug-In . SVG Version: 6.00 Build 0)  -->
<svg version="1.1" id="Layer_1" xmlns="http://www.w3.org/2000/svg" xmlns:xlink="http://www.w3.org/1999/xlink" x="0px" y="0px"
	 viewBox="0 0 36 36" style="enable-background:new 0 0 36 36;" xml:space="preserve">
<style type="text/css">
	.st0{clip-path:url(#SVGID_2_);}
	.st1{fill:url(#SVGID_3_);}
	.st2{fill-rule:evenodd;clip-rule:evenodd;}
</style>
<g>
	<g>
		<defs>
			<rect id="SVGID_1_" width="36" height="36"/>
		</defs>
		<clipPath id="SVGID_2_">
			<use xlink:href="#SVGID_1_"  style="overflow:visible;"/>
		</clipPath>
		<g class="st0">
			
				<linearGradient id="SVGID_3_" gradientUnits="userSpaceOnUse" x1="5.2721" y1="32.7279" x2="30.7279" y2="7.2721" gradientTransform="matrix(1 0 0 -1 0 38)">
				<stop  offset="0" style="stop-color:#6ECBF3"/>
				<stop  offset="0.5266" style="stop-color:#FFB8DD"/>
				<stop  offset="1" style="stop-color:#84EDB3"/>
			</linearGradient>
			<path class="st1" d="M18,36c9.941,0,18-8.059,18-18c0-9.941-8.059-18-18-18C8.059,0,0,8.059,0,18C0,27.941,8.059,36,18,36z"/>
			<path class="st2" d="M7.428,13.519H0.562c-0.775,3.008-0.759,6.167,0.046,9.175h6.805c0.927,0,1.686-0.76,1.686-1.686v-5.802
				C9.114,14.278,8.354,13.519,7.428,13.519z M6.532,16.815H4.967v2.689c0,0.38,0.304,0.942,0.987,0.516
				c0.061-0.03,0.182-0.137,0.182-0.137s0.091,0.106,0.122,0.152l0.106,0.137c0,0-0.38,0.608-1.367,0.608
				c-0.759,0-1.337-0.608-1.337-1.534V16.83H3.463c-0.684,0-1.17,0.547-1.17,0.547l-0.334-0.273
				c0.122-0.258,0.289-0.456,0.471-0.638c0.304-0.319,0.911-0.547,1.504-0.547h2.597V16.815z"/>
			<path d="M23.924,17.559c0.501-0.729,0.805-1.625,0.805-2.582c0-2.339-1.747-4.238-3.889-4.238h-0.623v-3.6H18.41v3.585h-1.823
				V7.139h-1.792v3.585h-3.737c-0.182,0-0.334,0.152-0.334,0.334v1.17c0,0.182,0.137,0.334,0.304,0.334
				c1.291,0.106,1.959,0.972,1.959,2.005v6.987c0,0.957-0.471,1.701-1.549,1.777c-0.137,0.03-0.289,0.106-0.304,0.289l-0.228,1.139
				c-0.03,0.197,0.106,0.395,0.334,0.395h3.539v3.585h1.777v-3.524h1.823V28.8h1.777v-3.585h1.519c2.142,0,3.889-1.853,3.889-4.177
				C25.625,19.595,24.927,18.319,23.924,17.559z M15.19,12.911h5.134c1.17,0,2.096,0.957,2.096,2.096
				c0,1.17-0.957,2.096-2.096,2.096H15.19V12.911z M21.342,23.195h-6.137v-4.177h6.137c1.17,0,2.096,0.957,2.096,2.096
				C23.438,22.253,22.481,23.195,21.342,23.195z"/>
		</g>
	</g>
</g>
</svg>
