<?xml version="1.0" encoding="utf-8"?>
<!-- Generator: Adobe Illustrator 25.2.1, SVG Export Plug-In . SVG Version: 6.00 Build 0)  -->
<svg version="1.1" id="Layer_1" xmlns="http://www.w3.org/2000/svg" xmlns:xlink="http://www.w3.org/1999/xlink" x="0px" y="0px"
	 viewBox="0 0 36 36" style="enable-background:new 0 0 36 36;" xml:space="preserve">
<style type="text/css">
	.st0{fill:#FFFFFF;}
	.st1{fill:#077FA2;}
	.st2{fill:#17A84B;}
</style>
<g>
	<path class="st0" d="M18,36c9.941,0,18-8.059,18-18c0-9.941-8.059-18-18-18C8.059,0,0,8.059,0,18C0,27.941,8.059,36,18,36z"/>
	<path class="st1" d="M20.625,16.847c-0.019-1.433-1.182-2.588-2.625-2.597v5.25C19.461,19.491,20.634,18.308,20.625,16.847
		C20.625,16.856,20.625,16.856,20.625,16.847z"/>
	<path class="st2" d="M15.375,16.847c0.019-1.433,1.182-2.588,2.625-2.597v5.25C16.539,19.491,15.366,18.308,15.375,16.847
		C15.375,16.856,15.375,16.856,15.375,16.847z"/>
	<path class="st1" d="M23.948,7.1c-1.507-0.846-2.987-0.094-3.32,1.573c-0.245,1.196,0.333,1.914,1.296,2.555
		c4.1,2.752,4.424,7.76,1.077,10.82c-0.578,0.436-1.182,0.829-1.813,1.179c-0.447,0.248-0.552,0.068-0.578-0.359
		c0-0.299-0.026-0.598-0.079-0.889c-0.14-1.068-0.963-1.872-2.049-1.88L18,20.082v11.392V31.5h0.368c1.139,0,1.997-0.675,2.19-1.744
		c0.044-0.231,0.07-0.47,0.079-0.709c-0.009-0.385,0.262-0.726,0.657-0.795c0.771-0.214,1.515-0.487,2.243-0.82
		c3.355-1.649,5.334-4.188,6.026-7.598c0.009-0.06,0.018-0.12,0.026-0.171C29.86,18.62,30,17.544,30,16.458
		C29.825,12.715,27.898,9.313,23.948,7.1z"/>
	<path class="st2" d="M12.053,7.1c1.507-0.846,2.987-0.094,3.32,1.573c0.245,1.196-0.333,1.914-1.296,2.555
		c-4.1,2.752-4.424,7.76-1.077,10.82c0.578,0.436,1.182,0.829,1.813,1.179c0.447,0.248,0.552,0.068,0.578-0.359
		c0-0.299,0.026-0.598,0.079-0.889c0.14-1.068,0.963-1.872,2.049-1.88L18,20.082v11.392V31.5h-0.368
		c-1.139,0-1.997-0.675-2.19-1.744c-0.044-0.231-0.07-0.47-0.079-0.709c0.009-0.385-0.262-0.726-0.657-0.795
		c-0.771-0.214-1.515-0.487-2.242-0.82c-3.355-1.649-5.334-4.188-6.026-7.598c-0.009-0.06-0.018-0.12-0.026-0.171
		C6.14,18.62,6,17.544,6,16.458C6.175,12.715,8.102,9.313,12.053,7.1z"/>
</g>
</svg>
