<?xml version="1.0" encoding="utf-8"?>
<!-- Generator: Adobe Illustrator 25.2.1, SVG Export Plug-In . SVG Version: 6.00 Build 0)  -->
<svg version="1.1" id="Layer_1" xmlns="http://www.w3.org/2000/svg" xmlns:xlink="http://www.w3.org/1999/xlink" x="0px" y="0px"
	 viewBox="0 0 36 36" style="enable-background:new 0 0 36 36;" xml:space="preserve">
<style type="text/css">
	.st0{fill:#2761E7;}
	.st1{fill:#9FC5FF;}
	.st2{fill:#FFFFFF;}
</style>
<g>
	<circle class="st0" cx="18" cy="18" r="18"/>
	<path class="st1" d="M17.051,14.557h-0.678V9.715H7.44c-0.169,0-0.315,0.145-0.315,0.315v6.827c0,0.169,0.145,0.315,0.315,0.315
		h3.414v12.419c0,0.169,0.145,0.314,0.315,0.314h5.592c0.17,0,0.315-0.145,0.315-0.314V14.557H17.051z"/>
	<path class="st2" d="M22.982,7.875h-2.155H14.92c-0.169,0-0.315,0.145-0.315,0.315v19.561c0,0.169,0.145,0.315,0.315,0.315h5.592
		c0.17,0,0.315-0.145,0.315-0.315v-4.963h2.155c4.116,0,7.457-3.341,7.457-7.456C30.439,11.216,27.098,7.875,22.982,7.875z"/>
</g>
</svg>
