<?xml version="1.0" encoding="utf-8"?>
<!-- Generator: Adobe Illustrator 25.2.1, SVG Export Plug-In . SVG Version: 6.00 Build 0)  -->
<svg version="1.1" id="Layer_1" xmlns="http://www.w3.org/2000/svg" xmlns:xlink="http://www.w3.org/1999/xlink" x="0px" y="0px"
	 viewBox="0 0 36 36" style="enable-background:new 0 0 36 36;" xml:space="preserve">
<style type="text/css">
	.st0{fill:#FFFFFF;}
	.st1{fill:#8A71EA;}
</style>
<g>
	<g>
		<circle class="st0" cx="18" cy="18" r="18"/>
	</g>
</g>
<g>
	<path class="st1" d="M7.596,7.063C8.087,7.418,8.56,7.74,9.009,8.091c0.227,0.178,0.353,0.165,0.544-0.063
		c0.896-1.075,1.988-1.922,3.171-2.658c0.092-0.057,0.192-0.102,0.362-0.192c0.039,0.678,0.074,1.295,0.112,1.963
		c0.137-0.075,0.225-0.116,0.305-0.169c1.589-1.033,3.348-1.582,5.209-1.852c0.203-0.029,0.299,0.029,0.294,0.243
		c-0.006,0.293-0.001,0.586-0.001,0.879c0,0.526,0,0.516,0.542,0.501c1.5-0.04,2.996,0.002,4.478,0.261
		c0.219,0.038,0.434,0.096,0.744,0.166c-0.294,0.342-0.543,0.631-0.831,0.966c0.227,0.047,0.388,0.079,0.548,0.113
		c1.629,0.346,3.012,1.16,4.264,2.23c0.218,0.186,0.176,0.296-0.045,0.426c-0.347,0.204-0.686,0.423-1.059,0.655
		c0.083,0.064,0.128,0.111,0.183,0.138c1.586,0.781,2.805,1.976,3.839,3.384c0.168,0.229,0.137,0.35-0.139,0.434
		c-0.374,0.113-0.742,0.248-1.171,0.394c0.188,0.204,0.344,0.37,0.498,0.539c0.935,1.03,1.661,2.185,2.085,3.517
		c0.113,0.355,0.086,0.392-0.281,0.395c-0.404,0.003-0.808,0.001-1.296,0.001c0.623,0.924,0.962,1.896,1.25,2.921
		c-0.493-0.047-0.947-0.094-1.402-0.133c-0.302-0.026-0.605-0.05-0.909-0.057c-0.183-0.004-0.249-0.068-0.265-0.257
		c-0.132-1.609-0.552-3.152-1.092-4.667c-0.121-0.338-0.303-0.459-0.667-0.421c-1.294,0.136-2.578,0.082-3.846-0.247
		c-1.286-0.333-2.375-0.987-3.266-1.966c-0.113-0.124-0.167-0.3-0.249-0.452c0.164-0.084,0.318-0.208,0.492-0.247
		c1.382-0.306,2.634-0.024,3.789,0.807c0.534,0.384,1.134,0.676,1.707,1.004c0.081,0.047,0.181,0.061,0.334,0.111
		c-0.051-0.121-0.058-0.197-0.099-0.226c-0.753-0.544-1.506-1.089-2.267-1.621c-1.002-0.7-2.139-0.755-3.297-0.643
		c-1.671,0.162-3.323,0.111-4.893-0.537c-0.539-0.223-1.023-0.594-1.504-0.937c-0.282-0.201-0.236-0.368,0.091-0.493
		c3.208-1.224,6.27-0.891,9.102,1.018c1.08,0.728,2.004,1.689,2.997,2.545c0.15,0.129,0.291,0.269,0.437,0.403
		c0.028-0.017,0.055-0.034,0.083-0.051c-0.035-0.09-0.057-0.19-0.109-0.269c-1.973-3.017-4.729-4.931-8.234-5.726
		c-0.911-0.206-1.867-0.21-2.803-0.307c-0.23-0.024-0.395,0.055-0.548,0.243c-1.093,1.338-2.543,2.016-4.228,2.24
		c-0.105,0.014-0.266-0.031-0.319-0.107c-0.051-0.072-0.024-0.233,0.021-0.331c0.112-0.244,0.264-0.47,0.378-0.713
		c0.042-0.09,0.072-0.262,0.026-0.301c-0.077-0.065-0.236-0.1-0.331-0.066c-0.326,0.116-0.656,0.24-0.955,0.412
		c-0.651,0.372-1.29,0.766-1.92,1.173c-0.123,0.08-0.184,0.256-0.274,0.387c0.125,0.079,0.241,0.198,0.377,0.229
		c0.446,0.103,0.897,0.218,1.351,0.247c0.897,0.057,1.798,0.043,2.696,0.087c1.012,0.049,2.013,0.169,2.939,0.632
		c0.651,0.326,1.153,0.809,1.528,1.428c0.032,0.053,0.042,0.118,0.079,0.231c-0.114-0.018-0.188-0.015-0.249-0.041
		c-1.639-0.706-3.33-0.878-5.077-0.51c-1.316,0.277-2.767-0.391-3.508-1.616c-0.006-0.01-0.012-0.019-0.018-0.029
		c-0.35-0.558-0.475-0.66-0.906-0.166c-0.032,0.037-0.086,0.056-0.209,0.132C7.596,11.314,7.596,9.22,7.596,7.063z"/>
	<path class="st1" d="M15.992,16.116c-0.755-0.103-1.54-0.007-2.31,0.028c-0.807,0.036-1.614,0.169-2.418,0.143
		c-0.883-0.029-1.762-0.185-2.534-0.682c-1.337-0.861-2.675-1.721-4.015-2.58C4.145,12.66,3.572,12.3,3,11.938
		c0.018,0.111,0.067,0.181,0.124,0.245c0.523,0.59,1.029,1.196,1.577,1.762c0.541,0.559,0.967,1.217,1.591,1.711
		c0.425,0.337,0.742,0.808,1.112,1.215c0.452,0.498,0.915,0.986,1.358,1.492c0.073,0.083,0.067,0.236,0.097,0.356
		c-0.121,0.01-0.25,0.049-0.363,0.022c-0.193-0.046-0.375-0.134-0.6-0.218c-0.01,0.09-0.019,0.134-0.019,0.178
		c0,0.056,0.003,0.112,0.01,0.168c0.103,0.786,0.056,1.556-0.376,2.242c-0.637,1.015-1.307,2.008-1.955,3.016
		c-0.112,0.174-0.255,0.376-0.256,0.566c-0.004,0.89,0.125,1.766,0.44,2.604c0.137,0.365,0.394,0.48,0.749,0.341
		c0.428-0.167,0.854-0.34,1.273-0.526c1.381-0.612,2.598-1.5,3.855-2.318c1.727-1.124,3.453-2.249,5.169-3.389
		c0.785-0.522,1.281-1.236,1.365-2.21C18.283,17.71,17.659,16.343,15.992,16.116z M12.935,18.852
		c-0.382,0.157-0.764,0.313-1.147,0.468c-0.099,0.04-0.2,0.078-0.299,0.117c-0.041-0.109-0.082-0.219-0.092-0.246
		c0.015-0.528,0.204-0.801,0.594-0.948c0.394-0.149,0.818-0.075,1.061,0.202c0.069,0.078,0.094,0.194,0.14,0.293
		C13.106,18.776,13.021,18.816,12.935,18.852z"/>
	<path class="st1" d="M14.447,28.885c0.255-0.734,0.492-1.405,0.72-2.079c0.337-0.998,0.303-2.006,0.035-3.01
		c-0.062-0.231,0.001-0.332,0.19-0.461c0.757-0.516,1.549-1,2.232-1.603c0.836-0.739,1.329-1.696,1.409-2.849
		c0.072-1.032-0.104-2.027-0.325-3.023c-0.029-0.132-0.014-0.274-0.02-0.411c0.146,0.029,0.31,0.025,0.436,0.092
		c1.644,0.862,2.613,2.242,3.024,4.026c0.346,1.501,0.181,2.988-0.207,4.457c-0.032,0.123-0.172,0.262-0.294,0.309
		c-2.335,0.896-4.436,2.182-6.349,3.784C15.019,28.35,14.756,28.605,14.447,28.885z"/>
	<path class="st1" d="M29.46,23.041c-0.792,0.033-1.533,0.102-2.27,0.077c-0.291-0.01-0.583-0.209-0.859-0.353
		c-1.741-0.904-2.954-2.263-3.543-4.151c-0.126-0.405-0.063-0.504,0.345-0.481c1.339,0.074,2.647,0.29,3.875,0.865
		c0.711,0.333,1.227,0.847,1.509,1.588C28.821,21.39,29.133,22.191,29.46,23.041z"/>
	<path class="st1" d="M25.087,23.372c-0.628,0.146-1.192,0.278-1.78,0.415c-0.057-0.299-0.124-0.58-0.163-0.865
		c-0.042-0.313,0.094-0.431,0.387-0.335C24.072,22.764,24.601,22.971,25.087,23.372z"/>
</g>
</svg>
