<?xml version="1.0" encoding="utf-8"?>
<!-- Generator: Adobe Illustrator 25.2.1, SVG Export Plug-In . SVG Version: 6.00 Build 0)  -->
<svg version="1.1" id="Layer_1" xmlns="http://www.w3.org/2000/svg" xmlns:xlink="http://www.w3.org/1999/xlink" x="0px" y="0px"
	 viewBox="0 0 36 36" style="enable-background:new 0 0 36 36;" xml:space="preserve">
<style type="text/css">
	.st0{fill:#3375BB;}
	.st1{fill:#FFFDFA;}
</style>
<g>
	<path class="st0" d="M18,36c9.941,0,18-8.059,18-18S27.941,0,18,0S0,8.059,0,18S8.059,36,18,36z"/>
	<path class="st1" d="M18,8.583l0.492-0.641c-0.291-0.224-0.697-0.224-0.988,0L18,8.583z M26.464,11.071h0.807
		c0.001-0.107-0.019-0.214-0.058-0.313c-0.04-0.099-0.099-0.19-0.174-0.266c-0.075-0.076-0.165-0.137-0.263-0.179
		c-0.099-0.042-0.205-0.063-0.312-0.064L26.464,11.071L26.464,11.071z M18,28.361l-0.449,0.673c0.132,0.089,0.288,0.136,0.447,0.136
		c0.159,0,0.315-0.047,0.447-0.136L18,28.361z M9.543,11.071V10.26c-0.107,0-0.213,0.022-0.312,0.064
		c-0.099,0.042-0.188,0.102-0.263,0.179c-0.075,0.077-0.134,0.167-0.174,0.266c-0.04,0.099-0.06,0.206-0.058,0.313L9.543,11.071z
		 M17.508,9.221c3.664,2.838,7.86,2.657,8.96,2.657V10.26c-1.14,0-4.793,0.145-7.964-2.317C18.503,7.943,17.508,9.221,17.508,9.221z
		 M25.66,11.056c-0.061,3.751-0.221,6.397-0.525,8.356s-0.724,3.103-1.278,3.921c-0.554,0.818-1.263,1.35-2.302,1.969
		s-2.368,1.307-4.004,2.389l0.912,1.343c1.55-1.032,2.839-1.691,3.935-2.346c1.106-0.602,2.065-1.44,2.81-2.455
		c0.724-1.086,1.22-2.534,1.538-4.576s0.482-4.79,0.543-8.576L25.66,11.056L25.66,11.056z M18.463,27.691
		c-1.625-1.086-2.95-1.759-3.982-2.386c-1.032-0.626-1.741-1.126-2.299-1.973c-0.557-0.847-1.01-1.973-1.322-3.921
		s-0.449-4.605-0.51-8.356l-1.615,0.025c0.061,3.787,0.228,6.542,0.543,8.576c0.315,2.035,0.797,3.483,1.535,4.576
		c0.741,1.015,1.698,1.853,2.802,2.455c1.086,0.655,2.386,1.314,3.936,2.346C17.551,29.034,18.463,27.691,18.463,27.691z
		 M9.543,11.878c1.086,0,5.285,0.181,8.949-2.657l-0.988-1.278c-3.179,2.462-6.832,2.317-7.965,2.317
		C9.539,10.259,9.543,11.878,9.543,11.878z"/>
</g>
</svg>
