<?xml version="1.0" encoding="utf-8"?>
<!-- Generator: Adobe Illustrator 25.2.1, SVG Export Plug-In . SVG Version: 6.00 Build 0)  -->
<svg version="1.1" id="Layer_1" xmlns="http://www.w3.org/2000/svg" xmlns:xlink="http://www.w3.org/1999/xlink" x="0px" y="0px"
	 viewBox="0 0 36 36" style="enable-background:new 0 0 36 36;" xml:space="preserve">
<style type="text/css">
	.st0{fill:#FFE8F1;}
	.st1{fill:#FF007A;}
</style>
<g>
	<g>
		<circle class="st0" cx="18" cy="18" r="18"/>
	</g>
</g>
<g>
	<path class="st1" d="M14.508,13.983c0.109-0.145,0.188-0.309,0.233-0.485c0.04-0.169,0.05-0.344,0.029-0.517l-0.015-0.127
		l-0.067-0.082l-0.9-1.029l-0.328-0.369L8.276,5.25l3.503,5.131l1.425,1.775l0.658,0.83c0.055,0.071,0.084,0.159,0.082,0.249
		c-0.003,0.09-0.035,0.176-0.094,0.245c-0.055,0.064-0.124,0.114-0.201,0.149c-0.155,0.069-0.334,0.066-0.486-0.01
		c-0.076-0.038-0.142-0.091-0.194-0.157l-4.6-5.702l3.203,5.786c0.115,0.205,0.074,0.462-0.098,0.622
		c-0.16,0.146-0.293,0.319-0.395,0.511c-0.148,0.293-0.249,0.607-0.299,0.931l-0.075,0.549l-0.034,0.273
		c-0.139,0.97-0.768,1.95-1.367,2.697l-0.216,0.265c-0.448,0.544-0.913,1.109-1.038,1.816c-0.138,0.781,0.018,1.606,0.354,2.319
		c0.127,0.273,0.29,0.519,0.453,0.767l0,0l0.003,0.004l0.166,0.254l0.003,0.005c0.048,0.082,0.477,0.817,0.282,0.847
		c2.009-0.318,3.438-1.226,3.611-2.092c0.211-1.069-0.43-1.493-1.01-1.878c-0.208-0.138-0.408-0.27-0.559-0.425
		c-0.318-0.324-0.557-0.638-0.607-1.107c-0.065-0.608,0.161-1.063,0.411-1.565l0,0l0-0.001l0.14-0.287
		c0.228-0.469,0.377-0.973,0.441-1.49l0.025-0.358l0.035-0.44c0.011-0.093,0.028-0.186,0.05-0.277
		c0.049-0.183,0.155-0.346,0.303-0.465c0.148-0.119,0.329-0.186,0.518-0.193l0.01-0.001l0.186-0.017
		c0.298-0.032,0.59-0.11,0.866-0.229C14.038,14.452,14.305,14.246,14.508,13.983L14.508,13.983z M26.569,15.44l-0.005-0.007
		c-0.075-0.14-0.16-0.273-0.255-0.4c-0.28-0.381-0.681-0.654-1.137-0.773c-0.303-0.079-0.614-0.128-0.927-0.146l-0.694-0.04
		l-0.011,0l-0.261-0.013c-0.655-0.036-1.325-0.104-1.98-0.291l-0.485-0.16l-0.239-0.096l-0.246-0.116
		c-0.308-0.17-0.593-0.378-0.849-0.619c-0.464-0.434-0.837-0.922-1.204-1.401v0l-0.094-0.123c-0.374-0.52-0.776-1.02-1.203-1.497
		c-0.421-0.467-0.92-0.858-1.473-1.156c-0.573-0.29-1.196-0.469-1.835-0.526c0.663-0.072,1.334,0.01,1.96,0.24
		c0.632,0.246,1.209,0.615,1.7,1.085c0.321,0.302,0.621,0.624,0.9,0.965c2.079-0.411,3.766-0.046,5.061,0.663l0.029,0.015
		c0.413,0.225,0.799,0.495,1.153,0.804c0.056,0.048,0.11,0.098,0.164,0.149c0.276,0.255,0.533,0.53,0.769,0.822l0.018,0.024
		C26.19,13.814,26.568,14.826,26.569,15.44L26.569,15.44z M15.342,16.79c0.556-0.054,1.741-0.344,1.211-1.281
		c-0.114-0.19-0.279-0.345-0.476-0.445s-0.419-0.143-0.639-0.123c-0.224,0.024-0.435,0.117-0.604,0.265
		c-0.169,0.148-0.289,0.346-0.343,0.565C14.326,16.384,14.5,16.872,15.342,16.79z M23.84,18.054L23.84,18.054
		c1.847,0.753,3.619,1.475,3.545,3.234c0.819-1.069,1.171-3.974-1.239-5.469c-1.021-0.634-2.19-0.802-3.279-0.957h0
		c-1.2-0.172-2.304-0.33-3.007-1.084C19.532,16.297,21.734,17.196,23.84,18.054z"/>
	<path class="st1" d="M24.541,11.902l0.1,0.091l-0.115-0.104l-0.049-0.045L24.541,11.902L24.541,11.902z M13.775,8.685
		c0.53,0.077,1.071,0.29,1.42,0.694c0.349,0.405,0.477,0.931,0.578,1.432l0.04,0.195c0.066,0.324,0.132,0.65,0.259,0.957
		c0.048,0.117,0.11,0.224,0.173,0.332v0l0.098,0.173c0.031,0.058,0.072,0.114,0.113,0.17l0,0.001
		c0.059,0.079,0.118,0.159,0.149,0.247c0.009,0.022,0.013,0.045,0.01,0.069c-0.003,0.023-0.012,0.046-0.025,0.065
		c-0.185,0.206-0.685-0.023-0.873-0.115c-0.325-0.162-0.617-0.385-0.859-0.658c-0.756-0.843-1.146-2.056-1.122-3.16
		C13.743,8.951,13.756,8.818,13.775,8.685L13.775,8.685z M23.846,22.26c-0.867-1.273-1.74-2.554-1.199-4.07
		c0.378,0.261,0.818,0.499,1.272,0.745l0,0c1.169,0.633,2.429,1.313,2.951,2.57c0.829,1.987-0.12,4.491-2.118,5.32
		C25.78,25.1,24.816,23.685,23.846,22.26L23.846,22.26L23.846,22.26z M15.772,22.391c0.312-0.236,0.653-0.431,1.016-0.58
		c0.366-0.147,0.746-0.257,1.135-0.329l0.718-0.116c0.518-0.076,1.015-0.149,1.454-0.327c0.317-0.124,0.608-0.305,0.859-0.535
		c0.243-0.227,0.429-0.509,0.544-0.822c0.117-0.331,0.164-0.682,0.139-1.032c-0.029-0.376-0.114-0.745-0.251-1.096
		c0.286,0.299,0.493,0.663,0.605,1.061c0.112,0.398,0.124,0.818,0.036,1.221c-0.1,0.427-0.316,0.819-0.624,1.131
		c-0.305,0.302-0.673,0.532-1.077,0.674c-0.386,0.136-0.788,0.219-1.196,0.247l-0.733,0.043l-0.413,0.021
		C17.227,21.984,16.482,22.132,15.772,22.391L15.772,22.391z M23.032,28.098l0.032-0.025l0.026-0.021l0.016-0.012
		c-0.266,0.121-0.543,0.217-0.828,0.283c-0.137,0.03-0.276,0.05-0.416,0.06l-0.204-0.005L21.46,28.35
		c-1.023-0.179-1.16-1.209-1.28-2.101l-0.085-0.557c-0.063-0.32-0.16-0.632-0.291-0.93c-0.145-0.318-0.35-0.606-0.604-0.846
		c-0.256-0.229-0.55-0.412-0.869-0.539c-0.304-0.124-0.623-0.208-0.949-0.247c-0.634-0.078-1.276-0.028-1.89,0.145
		c-0.593,0.167-1.161,0.411-1.69,0.726c-0.516,0.313-0.998,0.676-1.441,1.086c0.035-0.032,0.229,0.002,0.349,0.023h0l0.082,0.013
		l0.428,0.069c0.282,0.054,0.557,0.139,0.819,0.255c0.381,0.186,0.725,0.438,1.017,0.746l0.178,0.187
		c0.131,0.174,0.281,0.333,0.446,0.475l0.123,0.105c0.238,0.192,0.524,0.317,0.827,0.36c0.216,0.027,0.434,0.004,0.64-0.066
		c0.101-0.034,0.198-0.08,0.289-0.137c0.092-0.058,0.174-0.128,0.246-0.21c0.135-0.158,0.224-0.349,0.26-0.554
		c0.037-0.197,0.019-0.4-0.053-0.586c-0.069-0.181-0.206-0.329-0.381-0.411c0.151,0.102,0.256,0.26,0.293,0.438
		c0.035,0.171,0.021,0.348-0.038,0.512c-0.054,0.157-0.151,0.296-0.278,0.403c-0.06,0.05-0.128,0.091-0.201,0.123
		c-0.072,0.03-0.148,0.051-0.226,0.063c-0.911,0.154-1.626-0.932-1.128-1.708c0.189-0.297,0.509-0.45,0.849-0.494
		c0.835-0.102,1.548,0.448,1.964,1.132c0.179,0.294,0.313,0.612,0.446,0.931l0.261,0.591c0.36,0.736,0.976,1.387,1.847,1.404
		c0.322,0.002,0.64-0.07,0.929-0.211c0.139-0.065,0.272-0.139,0.4-0.224C22.847,28.247,22.94,28.172,23.032,28.098L23.032,28.098z"
		/>
</g>
</svg>
