<?xml version="1.0" encoding="utf-8"?>
<!-- Generator: Adobe Illustrator 25.2.1, SVG Export Plug-In . SVG Version: 6.00 Build 0)  -->
<svg version="1.1" id="Layer_1" xmlns="http://www.w3.org/2000/svg" xmlns:xlink="http://www.w3.org/1999/xlink" x="0px" y="0px"
	 viewBox="0 0 36 36" style="enable-background:new 0 0 36 36;" xml:space="preserve">
<style type="text/css">
	.st0{fill:#84CC46;}
	.st1{fill:#FFFFFF;}
</style>
<g>
	<path class="st0" d="M18,36c9.941,0,18-8.059,18-18S27.941,0,18,0S0,8.059,0,18S8.059,36,18,36z"/>
	<g>
		<path class="st1" d="M27.185,19.002H8.815c-0.611,0-1.111,0.5-1.111,1.111s0.5,1.111,1.111,1.111h4.615l3.128,8.259
			c0.174,0.461,0.627,0.739,1.096,0.715c0.468,0.023,0.922-0.254,1.096-0.715l3.128-8.259h5.308c0.611,0,1.111-0.5,1.111-1.111
			S27.797,19.002,27.185,19.002L27.185,19.002z M17.653,26.102l-1.847-4.878H19.5C19.5,21.224,17.653,26.102,17.653,26.102z
			 M8.815,16.928h18.371c0.611,0,1.111-0.5,1.111-1.111s-0.5-1.111-1.111-1.111h-2.84l2.29-6.048
			c0.217-0.571-0.074-1.216-0.646-1.433c-0.572-0.216-1.216,0.074-1.433,0.646l-2.589,6.835h-8.632L10.749,7.87
			c-0.216-0.571-0.861-0.862-1.433-0.646C8.745,7.441,8.455,8.086,8.671,8.657l2.29,6.048H8.815c-0.611,0-1.111,0.5-1.111,1.111
			S8.204,16.928,8.815,16.928z"/>
	</g>
</g>
</svg>
