<?xml version="1.0" encoding="utf-8"?>
<!-- Generator: Adobe Illustrator 25.2.1, SVG Export Plug-In . SVG Version: 6.00 Build 0)  -->
<svg version="1.1" id="Layer_1" xmlns="http://www.w3.org/2000/svg" xmlns:xlink="http://www.w3.org/1999/xlink" x="0px" y="0px"
	 viewBox="0 0 36 36" style="enable-background:new 0 0 36 36;" xml:space="preserve">
<style type="text/css">
	.st0{clip-path:url(#SVGID_2_);}
	.st1{fill:url(#SVGID_3_);}
	.st2{opacity:0.2;}
	.st3{fill-rule:evenodd;clip-rule:evenodd;fill:#191326;}
</style>
<g>
	<g>
		<defs>
			<rect id="SVGID_1_" width="36" height="36"/>
		</defs>
		<clipPath id="SVGID_2_">
			<use xlink:href="#SVGID_1_"  style="overflow:visible;"/>
		</clipPath>
		<g class="st0">
			<path d="M18.002,36.003c9.942,0,18.002-8.06,18.002-18.002C36.003,8.06,27.944,0,18.002,0C8.06,0,0,8.06,0,18.002
				C0,27.944,8.06,36.003,18.002,36.003z"/>
			<path d="M18.002,34.649c9.194,0,16.648-7.454,16.648-16.648c0-9.194-7.453-16.648-16.648-16.648
				c-9.194,0-16.648,7.453-16.648,16.648C1.354,27.196,8.807,34.649,18.002,34.649z"/>
			
				<linearGradient id="SVGID_3_" gradientUnits="userSpaceOnUse" x1="17.9984" y1="35.9968" x2="17.9984" y2="2.7015" gradientTransform="matrix(1 0 0 -1 0 38)">
				<stop  offset="0.3" style="stop-color:#EFE149"/>
				<stop  offset="0.38" style="stop-color:#EFDC47"/>
				<stop  offset="0.48" style="stop-color:#F0CD42"/>
				<stop  offset="0.59" style="stop-color:#F2B43A"/>
				<stop  offset="0.7" style="stop-color:#F5922F"/>
				<stop  offset="0.82" style="stop-color:#F86621"/>
				<stop  offset="0.94" style="stop-color:#FC310F"/>
				<stop  offset="1" style="stop-color:#FE1406"/>
			</linearGradient>
			<path class="st1" d="M9.858,21.096c-0.203,0.84-0.252,1.71-0.144,2.567c-0.007,0.293-0.078,0.582-0.207,0.846
				c-0.216,0.272-0.056,0.597-0.128,0.888c-0.03,0.121-0.118,0.259,0,0.328c0.027,0.582,0.087,1.162,0.18,1.738
				c0.006,0.052,0.029,0.101,0.065,0.139c0.036,0.038,0.084,0.063,0.135,0.072c0.052,0.009,0.105,0.001,0.152-0.023
				c0.047-0.024,0.084-0.062,0.107-0.109l0.266-0.885c0.154-0.292,0.456-0.292,0.725-0.364c0.144,0.528,0.144,0.528,0.436,0.269
				c0.266-0.495,0.069-1.026,0.118-1.538l0.128-0.629c0.15-0.176,0.241-0.395,0.259-0.626c0.328-0.702,0.2-1.433,0.115-2.157
				c0.046-0.295,0.089-0.593,0.131-0.888c0-0.079,0-0.157,0-0.239c0.223-0.105,0.229-0.328,0.246-0.521
				c0.059-0.067,0.102-0.146,0.126-0.232c0.024-0.086,0.03-0.175,0.015-0.263c0.197-0.272,0.062-0.597,0.141-0.888l0.233-0.511
				c0.044-0.024,0.081-0.061,0.106-0.105c0.025-0.044,0.037-0.094,0.035-0.145c0.162-0.18,0.28-0.396,0.344-0.629
				c0.176-0.178,0.311-0.393,0.393-0.629c0.177-0.174,0.301-0.394,0.357-0.636c0.235-0.252,0.402-0.56,0.485-0.895
				c0.636-0.839,1.029-1.813,1.531-2.731c0.259-0.472,0.423-0.806-0.249-0.934c-0.056-0.252,0.367-0.351,0.134-0.577
				c-0.154-0.154-0.367-0.108-0.587-0.069c-0.528,0.136-1.042,0.318-1.538,0.544c-0.184,0.043-0.358,0.124-0.51,0.237
				c-0.152,0.113-0.28,0.255-0.375,0.419c-0.429,0.862-0.885,1.711-1.334,2.567c-0.071,0.143-0.134,0.289-0.187,0.439
				c-0.052,0.177,0.125,0.439-0.184,0.508c-0.249,0.056-0.328-0.17-0.488-0.305c-0.282-0.731-0.761-1.361-1.095-2.056
				c-0.288-0.613-0.616-0.564-1.092-0.361c-0.246,0.12-0.479,0.263-0.698,0.426c-0.21,0.151-0.443,0.416-0.328,0.629
				c0.384,0.675,0.308,1.61,1.128,2.039l0.305,0.364c0.161,0.328,0.328,0.679,0.488,1.016c0.049,0.21,0.102,0.416,0.151,0.626
				c0,0.305-0.082,0.656,0.144,0.875c0.108,0.091,0.195,0.203,0.256,0.331c0.061,0.127,0.093,0.266,0.095,0.407
				c-0.092,0.152-0.137,0.328-0.128,0.505c-0.173,0.363-0.263,0.761-0.262,1.164L9.858,21.096z M29.178,8.717
				c-0.577,0.249-1.718,0.931-1.967,1.502c-0.104,0.215-0.262,0.399-0.459,0.534c-0.481,0.345-0.829,0.845-0.984,1.416
				c-0.069,0.252-0.193,0.525-0.433,0.593c-0.833,0.249-0.895,1.062-1.275,1.639c-0.128,0.351-0.262,0.679-0.39,1.006
				c-0.149,0.189-0.241,0.416-0.265,0.656c-0.144,0.189-0.227,0.418-0.236,0.656l-0.115,0.131c-0.035,0.027-0.062,0.064-0.077,0.106
				c-0.016,0.042-0.019,0.087-0.011,0.13c0.01,0.029,0.023,0.056,0.039,0.082c-0.106,0.035-0.218,0.043-0.328,0.023
				c0.054-0.057,0.089-0.131,0.098-0.209c0.01-0.078-0.005-0.158-0.043-0.227L22.657,16.7v-0.357l0.053-0.023
				c0.054-0.249,0.038-0.507-0.046-0.747c-0.012-0.307-0.1-0.607-0.256-0.872c-0.065-0.285,0.21-0.675-0.167-0.843
				c-0.123-0.062-0.262-0.087-0.398-0.07c-0.137,0.017-0.265,0.074-0.369,0.165c-0.386,0.296-0.646,0.727-0.728,1.206
				c-0.144,0.177-0.231,0.395-0.249,0.623c-0.127,0.199-0.21,0.422-0.242,0.656c-0.221,0.355-0.392,0.739-0.508,1.141
				c-0.23,0.345-0.403,0.724-0.511,1.124c-0.213,0.22-0.167,0.59-0.521,0.888v-2.751c0.075-0.105-0.046-0.157-0.065-0.236
				c0.328-0.39,0.197-1.029-0.266-1.472l0.017-0.036l-0.023-0.016c-0.18-0.443-0.633-0.459-0.984-0.656
				c-0.066-0.05-0.143-0.083-0.225-0.097c-0.082-0.014-0.165-0.007-0.244,0.018c-0.079,0.026-0.15,0.07-0.207,0.13
				c-0.058,0.059-0.1,0.132-0.124,0.211c-0.031,0.035-0.048,0.08-0.048,0.126c0,0.047,0.017,0.091,0.048,0.126v0.039
				c0,0.023,0,0.039,0,0.062c-0.028,0.352-0.034,0.706-0.019,1.059c-0.013,0.208,0.009,0.416,0.065,0.616
				c0,0.328,0,0.656-0.017,1.006v0.633v0.233c-0.017-0.001-0.034,0.001-0.05,0.008c-0.016,0.006-0.03,0.016-0.042,0.028
				c0,1.056-0.062,2.115,0.18,3.157c0.003,0.041,0.02,0.079,0.049,0.108c-0.049,0.229-0.36,0.252-0.384,0.498l0.03,0.026l-0.03-0.03
				c-0.174,0.328,0.046,0.606,0.128,0.902l-0.134,1.764c-0.101,0.334-0.119,0.687-0.052,1.029c-0.03,0.06-0.041,0.127-0.032,0.193
				c0.009,0.066,0.038,0.128,0.084,0.177c0.262,0.466,0.272,1.056,0.705,1.442c0.072-0.073,0.127-0.16,0.164-0.255
				c0.036-0.095,0.053-0.197,0.049-0.299l0.367-0.262c0.447-0.344,0.754-0.838,0.866-1.39c0.233-0.328,0.121-0.774,0.311-1.124
				l0.108-0.262c0.137-0.136,0.227-0.313,0.256-0.505c0.13-0.142,0.214-0.32,0.239-0.511c0.154-0.175,0.253-0.392,0.285-0.623
				c0.07-0.063,0.126-0.139,0.166-0.224c0.04-0.085,0.062-0.177,0.067-0.271l-0.033-0.023l0.029,0.026
				c0.144-0.192,0.236-0.418,0.266-0.656c0.13-0.195,0.209-0.421,0.226-0.656c0.088-0.207,0.173-0.41,0.259-0.616
				c0.305-0.049,0.328,0.131,0.328,0.374c0,0.292,0.019,0.584,0.029,0.875l-0.02,0.597c-0.055,0.302-0.108,0.603-0.164,0.905
				c-0.042,0.055-0.07,0.12-0.081,0.189c-0.011,0.069-0.005,0.139,0.019,0.205c-0.082,0.171-0.101,0.364-0.056,0.547
				c-0.013,0.397,0.016,0.795,0.085,1.187c0.005,0.149,0.064,0.29,0.167,0.397c0.103,0.107,0.242,0.172,0.39,0.183
				c0.127,0.043,0.265,0.041,0.391-0.006c0.126-0.047,0.232-0.135,0.301-0.25c0.314-0.466,0.559-0.975,0.728-1.511
				c0.175-0.214,0.262-0.488,0.242-0.764c0.164-0.547,0.508-1.043,0.492-1.639l0.128-0.252c0.136-0.139,0.229-0.315,0.269-0.505
				c0.108-0.143,0.187-0.306,0.23-0.481c0.043-0.174,0.049-0.355,0.019-0.532l0.049-0.492c0.38-0.243,0.502-0.656,0.705-1.026
				c0.056-0.044,0.098-0.104,0.12-0.171c0.023-0.068,0.025-0.14,0.007-0.209c0.089-0.295,0.177-0.587,0.269-0.882
				c0.053-0.046,0.094-0.103,0.119-0.169s0.034-0.136,0.025-0.205c0.037-0.021,0.067-0.053,0.086-0.092s0.025-0.082,0.019-0.124
				c0.192-0.279,0.326-0.593,0.394-0.924c0.182-0.358,0.31-0.742,0.377-1.138c0.302-0.725,0.967-1.216,1.233-1.967
				c0.264-0.687,0.703-1.293,1.275-1.757c0.616-0.534,0.655-1.013,0.288-1.878L29.178,8.717z M18.716,24.614
				c0.022-0.012,0.045-0.021,0.069-0.026L18.716,24.614z M18.002,1.354c-3.293-0.001-6.512,0.975-9.25,2.804
				c-2.738,1.829-4.872,4.429-6.133,7.471c-1.26,3.042-1.591,6.389-0.949,9.619c0.642,3.23,2.227,6.196,4.555,8.525
				c2.328,2.329,5.294,3.914,8.524,4.557c3.23,0.643,6.577,0.313,9.619-0.947c3.042-1.26,5.642-3.394,7.472-6.131
				c1.829-2.738,2.806-5.957,2.806-9.249c0-2.186-0.43-4.351-1.266-6.371c-0.836-2.02-2.062-3.855-3.608-5.401
				c-1.546-1.546-3.38-2.772-5.4-3.609C22.352,1.785,20.188,1.354,18.002,1.354z M18.002,33.433c-3.053,0-6.037-0.906-8.574-2.603
				c-2.538-1.697-4.516-4.108-5.683-6.928c-1.168-2.821-1.473-5.924-0.876-8.918C3.464,11.99,4.934,9.24,7.093,7.082
				c2.159-2.158,4.91-3.628,7.904-4.222c2.994-0.595,6.097-0.289,8.917,0.88c2.82,1.169,5.23,3.148,6.926,5.686
				c1.696,2.539,2.6,5.523,2.599,8.576c0.001,2.028-0.398,4.035-1.173,5.909c-0.776,1.873-1.913,3.576-3.346,5.009
				c-1.434,1.434-3.136,2.571-5.009,3.346c-1.874,0.776-3.881,1.174-5.909,1.174V33.433z"/>
		</g>
	</g>
	<g class="st2">
		<path class="st3" d="M18,34.826c9.293,0,16.826-7.533,16.826-16.826S27.293,1.174,18,1.174C8.707,1.174,1.174,8.707,1.174,18
			S8.707,34.826,18,34.826z M18,36c9.941,0,18-8.059,18-18S27.941,0,18,0C8.059,0,0,8.059,0,18S8.059,36,18,36z"/>
	</g>
</g>
</svg>
