<?xml version="1.0" encoding="utf-8"?>
<!-- Generator: Adobe Illustrator 25.2.3, SVG Export Plug-In . SVG Version: 6.00 Build 0)  -->
<svg version="1.1" id="Layer_1" xmlns="http://www.w3.org/2000/svg" xmlns:xlink="http://www.w3.org/1999/xlink" x="0px" y="0px"
	 viewBox="0 0 36 36" style="enable-background:new 0 0 36 36;" xml:space="preserve">
<style type="text/css">
	.st0{fill:#E3F0F2;}
	.st1{fill:url(#SVGID_1_);}
</style>
<ellipse class="st0" cx="18" cy="18" rx="18" ry="18"/>
<g>
	<path d="M7,10.092c0.801-0.001,1.601-0.001,2.402-0.004c0.418-0.002,0.834-0.007,1.241,0.112c0.903,0.266,1.566,0.811,1.961,1.671
		c0.907,1.977,1.812,3.955,2.72,5.932c0.068,0.147,0.146,0.29,0.226,0.447c0.167-0.391,0.33-0.773,0.501-1.172
		c0.023,0.047,0.04,0.08,0.055,0.113c0.693,1.533,1.385,3.066,2.08,4.598c0.038,0.083,0.042,0.15,0.002,0.235
		c-0.882,1.913-1.76,3.828-2.642,5.741c-0.029,0.063-0.086,0.112-0.13,0.168c-0.031,0-0.061,0-0.092,0
		c-0.046-0.063-0.104-0.121-0.137-0.19c-0.146-0.303-0.285-0.61-0.427-0.915c-2.369-5.107-4.738-10.215-7.107-15.322
		C7.436,11.042,7.217,10.579,7,10.115C7,10.107,7,10.1,7,10.092z"/>
	
		<radialGradient id="SVGID_1_" cx="-1678.615" cy="729.463" r="423.4369" fx="-1657.4067" fy="529.3694" gradientTransform="matrix(0.023 -0.0012 0.0012 0.0226 66.1701 -1.5056)" gradientUnits="userSpaceOnUse">
		<stop  offset="0.145" style="stop-color:#2AAFA8"/>
		<stop  offset="1" style="stop-color:#192327"/>
	</radialGradient>
	<path class="st1" d="M26.958,15.964c0.682-1.514,1.36-3.02,2.042-4.535c-0.06,0-0.101,0-0.142,0c-0.8,0-1.601-0.005-2.401,0.001
		c-0.887,0.006-1.632,0.341-2.218,1.007c-0.236,0.268-0.419,0.555-0.507,0.889l0,0L21.8,18.437
		c-0.128-0.197-0.237-0.405-0.333-0.618c-0.897-1.986-1.753-3.991-2.648-5.978c-0.52-1.155-1.452-1.737-2.713-1.765
		c-0.846-0.019-1.693-0.004-2.54-0.004c-0.04,0-0.081,0-0.138,0c0.022,0.055,0.036,0.093,0.052,0.131
		c0.332,0.744,0.665,1.487,0.998,2.23c1.573,3.511,3.145,7.021,4.718,10.532c0.716,1.598,1.432,3.196,2.148,4.794
		c0.034,0.076,0.075,0.163,0.167,0.143c0.059-0.012,0.127-0.074,0.153-0.131c0.465-1.043,0.923-2.089,1.384-3.134
		c0.19-0.429,0.379-0.859,0.575-1.285c0.189-0.411,0.388-0.817,0.577-1.228c0.164-0.354,0.321-0.711,0.48-1.067
		c0.101-0.226,0.202-0.452,0.308-0.689l1.206-2.712c0.22-0.489,0.439-0.976,0.658-1.462L26.958,15.964z"/>
</g>
</svg>
