<?xml version="1.0" encoding="utf-8"?>
<!-- Generator: Adobe Illustrator 25.2.1, SVG Export Plug-In . SVG Version: 6.00 Build 0)  -->
<svg version="1.1" id="Layer_1" xmlns="http://www.w3.org/2000/svg" xmlns:xlink="http://www.w3.org/1999/xlink" x="0px" y="0px"
	 viewBox="0 0 80 80" style="enable-background:new 0 0 80 80;" xml:space="preserve">
<style type="text/css">
	.st0{fill:url(#SVGID_1_);}
	.st1{fill:url(#SVGID_2_);}
</style>
<g>
	<linearGradient id="SVGID_1_" gradientUnits="userSpaceOnUse" x1="49.9124" y1="7.4895" x2="27.9916" y2="79.8055">
		<stop  offset="0" style="stop-color:#6964E9"/>
		<stop  offset="1" style="stop-color:#4A33D4"/>
	</linearGradient>
	<path class="st0" d="M75.461,23.254c0.009-2.581-1.101-4.365-3.267-5.612c-3.352-1.93-6.702-3.864-10.053-5.796
		C55.83,8.206,49.512,4.578,43.211,0.92c-2.077-1.205-4.117-1.235-6.19-0.039c-1.398,0.806-2.792,1.622-4.211,2.389
		c-0.633,0.342-0.862,0.761-0.859,1.507c0.026,7.157,0.003,14.314-0.002,21.471c0,0.246,0.037,0.493,0.068,0.867
		c0.506-0.261,0.906-0.446,1.287-0.667c1.886-1.092,3.778-2.175,5.644-3.3c0.722-0.435,1.384-0.479,2.114-0.054
		c4.383,2.551,8.767,5.1,13.164,7.625c0.713,0.409,0.946,0.944,0.941,1.748c-0.029,5.01-0.031,10.02-0.001,15.029
		c0.005,0.855-0.273,1.376-1.028,1.806c-4.371,2.49-8.723,5.014-13.066,7.553c-0.745,0.436-1.382,0.38-2.101-0.039
		c-4.286-2.491-8.576-4.974-12.887-7.421c-0.821-0.466-1.119-1.032-1.118-1.982c0.017-12.732-0.007-25.463-0.021-38.195
		c0-0.372,0-0.744,0-1.238c-0.303,0.1-0.415,0.118-0.506,0.17c-5.66,3.26-11.332,6.501-16.969,9.799
		c-2.026,1.185-2.889,3.111-2.893,5.402c-0.02,10.811,0.041,21.622-0.052,32.432c-0.028,3.26,1.232,5.429,4.068,7.033
		c9.409,5.323,18.755,10.756,28.103,16.186c2.272,1.32,4.453,1.326,6.705,0.023c9.684-5.606,19.379-11.194,29.061-16.803
		c2.018-1.169,3.022-2.927,3.016-5.296C75.45,45.704,75.423,34.479,75.461,23.254z M40.944,72.571
		c-0.552,0.274-1.544,0.154-2.114-0.171c-8.768-4.996-17.5-10.054-26.238-15.101c-0.846-0.489-1.283-1.208-1.282-2.218
		c0.009-10.095-0.005-20.191,0.03-30.286c0.002-0.547,0.222-1.338,0.616-1.599c1.983-1.314,4.059-2.491,6.321-3.847
		c0,1.094,0,1.872,0,2.65c-0.002,9.304,0.042,18.609-0.042,27.913c-0.018,1.995,0.719,3.168,2.422,4.135
		c8.318,4.723,16.584,9.539,24.867,14.325c0.42,0.243,0.828,0.505,1.348,0.823C44.848,70.369,42.948,71.574,40.944,72.571z
		 M68.802,55.146c0.001,1.074-0.45,1.739-1.355,2.256c-4.238,2.419-8.442,4.899-12.706,7.272c-0.517,0.288-1.436,0.294-1.971,0.029
		c-1.814-0.897-3.54-1.971-5.293-2.988c-0.183-0.106-0.325-0.282-0.574-0.503c2.571-1.488,5.064-2.935,7.561-4.377
		c1.853-1.07,3.705-2.141,5.565-3.198c1.253-0.712,1.879-1.732,1.873-3.213c-0.029-6.929-0.027-13.859-0.012-20.788
		c0.003-1.507-0.631-2.541-1.939-3.288c-5.965-3.409-11.893-6.883-17.878-10.255c-0.949-0.534-2.125-0.665-3.517-1.078
		c0-0.617,0.001-1.652,0-2.688c-0.001-1.167-0.007-2.335-0.005-3.502c0.003-1.603,1.02-2.237,2.53-1.483
		c1.341,0.67,2.621,1.461,3.92,2.213c7.405,4.287,14.798,8.595,22.222,12.85c1.15,0.659,1.62,1.469,1.613,2.802
		C68.787,35.186,68.79,45.166,68.802,55.146z"/>
	<linearGradient id="SVGID_2_" gradientUnits="userSpaceOnUse" x1="49.9173" y1="7.491" x2="27.9965" y2="79.807">
		<stop  offset="0" style="stop-color:#6964E9"/>
		<stop  offset="1" style="stop-color:#4A33D4"/>
	</linearGradient>
	<path class="st1" d="M32.845,45.225c2.124,1.191,4.194,2.482,6.343,3.626c0.465,0.247,1.283,0.251,1.748,0.006
		c2.152-1.136,4.263-2.357,6.324-3.652c0.448-0.281,0.867-0.984,0.885-1.507c0.089-2.478,0.075-4.963-0.003-7.442
		c-0.015-0.471-0.37-1.116-0.765-1.358c-2.173-1.328-4.392-2.585-6.636-3.789c-0.371-0.199-1.037-0.191-1.409,0.012
		c-2.237,1.22-4.447,2.493-6.614,3.832c-0.383,0.237-0.698,0.857-0.737,1.326c-0.102,1.232-0.034,2.479-0.034,3.719
		c-0.008,0-0.015,0-0.023,0c0,1.203,0.037,2.408-0.013,3.609C31.876,44.384,32.172,44.847,32.845,45.225z"/>
</g>
</svg>
